<?xml version="1.0" standalone="no"?>
<!DOCTYPE svg PUBLIC "-//W3C//DTD SVG 20010904//EN"
 "http://www.w3.org/TR/2001/REC-SVG-20010904/DTD/svg10.dtd">
<svg version="1.0" xmlns="http://www.w3.org/2000/svg"
 width="324.000000pt" height="324.000000pt" viewBox="0 0 324.000000 324.000000"
 preserveAspectRatio="xMidYMid meet">
<metadata>
Created by potrace 1.14, written by Peter Selinger 2001-2017
</metadata>
<g transform="translate(0.000000,324.000000) scale(0.100000,-0.100000)"
fill="#000000" stroke="none">
<path d="M1339 3226 c8 -9 8 -16 2 -20 -17 -11 -1 -33 22 -31 26 2 25 32 -1
53 -22 16 -37 15 -23 -2z"/>
<path d="M1676 3231 c-3 -4 -10 -21 -16 -37 l-10 -29 20 25 c11 14 20 31 20
38 0 14 -6 16 -14 3z"/>
<path d="M2075 3229 c-4 -6 -5 -12 -2 -15 2 -3 7 2 10 11 7 17 1 20 -8 4z"/>
<path d="M2530 3200 c0 -5 5 -10 11 -10 5 0 7 5 4 10 -3 6 -8 10 -11 10 -2 0
-4 -4 -4 -10z"/>
<path d="M760 3190 c0 -5 5 -10 11 -10 5 0 7 5 4 10 -3 6 -8 10 -11 10 -2 0
-4 -4 -4 -10z"/>
<path d="M2300 3184 c0 -8 5 -12 10 -9 6 4 8 11 5 16 -9 14 -15 11 -15 -7z"/>
<path d="M2820 3190 c0 -5 5 -10 11 -10 5 0 7 5 4 10 -3 6 -8 10 -11 10 -2 0
-4 -4 -4 -10z"/>
<path d="M1430 3166 c0 -8 5 -18 10 -21 6 -3 10 1 10 9 0 8 -4 18 -10 21 -5 3
-10 -1 -10 -9z"/>
<path d="M1045 3100 c3 -80 15 -90 15 -12 0 33 -4 63 -9 66 -5 3 -7 -21 -6
-54z"/>
<path d="M1480 3151 c0 -5 5 -13 10 -16 6 -3 10 -2 10 4 0 5 -4 13 -10 16 -5
3 -10 2 -10 -4z"/>
<path d="M1764 3136 c-4 -11 0 -24 9 -34 15 -14 17 -14 23 2 4 11 0 24 -9 34
-15 14 -17 14 -23 -2z"/>
<path d="M2487 3113 l-17 -38 20 24 c11 13 20 29 20 37 0 22 -5 17 -23 -23z"/>
<path d="M1972 3110 c-26 -23 -34 -26 -38 -15 -4 8 -10 12 -16 9 -5 -3 -4 -11
3 -20 9 -11 8 -15 -5 -20 -9 -3 -16 -11 -16 -17 0 -5 8 -2 19 7 16 15 19 15
24 1 7 -18 38 -21 35 -2 -2 6 -7 15 -13 19 -6 5 1 18 18 33 24 23 33 35 24 35
-1 0 -17 -13 -35 -30z"/>
<path d="M2396 3125 c-3 -8 -1 -15 4 -15 6 0 10 7 10 15 0 8 -2 15 -4 15 -2 0
-6 -7 -10 -15z"/>
<path d="M1103 3101 c-3 -11 -10 -18 -15 -15 -5 3 -4 -3 3 -14 12 -19 15 -19
42 -6 33 18 33 47 -1 52 -17 3 -25 -2 -29 -17z"/>
<path d="M2973 3104 c-7 -19 11 -39 26 -30 16 10 13 33 -4 40 -9 3 -18 -1 -22
-10z"/>
<path d="M717 3085 c-8 -18 11 -31 25 -17 11 11 3 32 -12 32 -4 0 -10 -7 -13
-15z"/>
<path d="M1335 3060 c-9 -29 20 -64 31 -37 3 9 -1 26 -9 37 l-15 22 -7 -22z"/>
<path d="M1746 3065 c4 -8 8 -15 10 -15 2 0 4 7 4 15 0 8 -4 15 -10 15 -5 0
-7 -7 -4 -15z"/>
<path d="M1506 3043 c8 -33 21 -50 31 -39 4 4 3 10 -2 14 -6 4 -10 13 -11 20
-2 27 -4 32 -14 32 -6 0 -8 -11 -4 -27z"/>
<path d="M1575 3060 c-3 -5 -1 -10 4 -10 6 0 11 5 11 10 0 6 -2 10 -4 10 -3 0
-8 -4 -11 -10z"/>
<path d="M2003 3050 c-15 -23 1 -38 22 -20 8 6 19 9 25 5 6 -3 10 3 10 14 0
28 -41 28 -57 1z"/>
<path d="M2780 3054 c0 -8 -5 -12 -10 -9 -12 7 -26 -23 -15 -33 3 -4 11 1 16
11 6 9 17 17 24 17 8 0 15 7 15 15 0 8 -7 15 -15 15 -8 0 -15 -7 -15 -16z"/>
<path d="M1141 3051 c-9 -6 -6 -8 13 -8 14 0 23 3 20 8 -7 11 -15 11 -33 0z"/>
<path d="M940 3030 c0 -5 4 -10 9 -10 6 0 13 5 16 10 3 6 -1 10 -9 10 -9 0
-16 -4 -16 -10z"/>
<path d="M1240 3031 c0 -5 5 -13 10 -16 6 -3 10 -2 10 4 0 5 -4 13 -10 16 -5
3 -10 2 -10 -4z"/>
<path d="M1605 3030 c3 -5 -1 -22 -9 -37 -8 -16 -15 -21 -16 -13 0 13 -1 13
-10 0 -5 -8 -10 -10 -10 -4 0 5 5 15 12 22 9 9 8 12 -4 12 -9 0 -20 -10 -24
-22 -6 -21 -7 -21 -20 -4 -7 10 -24 24 -38 32 -23 11 -26 11 -26 -6 0 -29 -11
-50 -25 -50 -20 0 -47 31 -41 46 3 8 1 14 -4 14 -15 0 -24 -23 -21 -52 1 -16
-1 -28 -6 -28 -4 0 -37 5 -73 11 -36 5 -78 11 -94 13 -17 1 -32 8 -34 14 -7
22 -42 13 -52 -14 -16 -42 -9 -85 17 -95 24 -9 28 -49 5 -49 -7 0 -10 5 -7 11
4 6 0 9 -11 7 -19 -3 -20 1 -23 48 0 11 -8 21 -16 21 -18 0 -20 -33 -2 -41 6
-3 1 -3 -12 0 -20 5 -23 3 -18 -10 4 -10 3 -15 -3 -11 -6 3 -10 -1 -10 -10 0
-10 5 -13 12 -9 7 4 8 3 4 -5 -6 -9 -11 -9 -21 -1 -15 12 -51 8 -67 -8 -9 -9
-9 -12 1 -12 7 0 10 -4 6 -10 -3 -5 -12 -7 -20 -3 -10 3 -15 -1 -15 -13 0 -15
-2 -16 -9 -5 -5 8 -7 20 -4 28 6 15 -6 17 -27 3 -13 -9 -13 -12 3 -21 9 -5 17
-18 16 -27 0 -11 -3 -12 -6 -4 -2 6 -9 10 -14 6 -5 -3 -5 -13 1 -24 11 -21 0
-33 -23 -24 -8 3 -18 1 -22 -5 -3 -6 1 -11 9 -11 8 0 18 -5 22 -12 4 -7 3 -8
-4 -4 -7 4 -12 2 -12 -3 0 -6 -11 -11 -25 -11 -19 0 -25 5 -23 18 2 11 -3 17
-17 17 -29 0 -27 -39 3 -43 36 -5 25 -22 -13 -20 -23 1 -31 4 -23 9 9 6 6 9
-9 9 -21 0 -29 -15 -24 -43 1 -5 -7 -6 -17 -3 -16 6 -19 2 -14 -20 4 -23 2
-25 -14 -17 -32 16 -59 10 -62 -14 -2 -15 -8 -20 -18 -16 -8 3 -14 2 -13 -3 3
-21 -2 -24 -22 -13 -15 8 -19 8 -15 0 4 -6 0 -11 -8 -11 -16 0 -19 15 -16 83
1 20 -3 37 -8 37 -6 0 -8 -9 -5 -20 3 -11 0 -20 -6 -20 -6 0 -11 -5 -11 -11 0
-5 5 -7 10 -4 6 3 10 2 10 -4 0 -5 -4 -12 -10 -16 -6 -4 -6 -15 1 -32 5 -14 7
-28 4 -31 -2 -3 0 -11 6 -19 9 -10 7 -13 -6 -13 -17 0 -17 -1 -2 -18 22 -24
21 -31 -3 -25 -11 3 -20 14 -20 24 0 12 -7 19 -20 19 -17 0 -20 -7 -20 -39 0
-22 -3 -41 -7 -44 -5 -2 -2 -2 5 -1 15 4 16 -32 2 -41 -6 -4 -18 -1 -27 7 -15
11 -16 11 -10 -5 6 -15 3 -17 -12 -12 -14 4 -21 0 -26 -15 -8 -26 1 -38 17
-22 7 7 20 12 29 12 15 0 16 -4 6 -30 -8 -21 -18 -30 -33 -30 -24 0 -40 -26
-21 -34 8 -3 7 -8 -4 -15 -12 -7 -15 -21 -12 -50 2 -22 0 -42 -6 -45 -5 -3 -7
-15 -4 -26 4 -16 2 -19 -11 -14 -25 9 -19 -11 7 -24 19 -9 13 -10 -33 -10 -30
0 -62 -1 -70 -3 -8 -1 -24 1 -36 5 -18 5 -21 2 -22 -24 0 -17 4 -28 9 -24 5 3
7 9 4 14 -3 4 4 10 14 13 15 4 20 -3 26 -37 5 -22 8 -48 9 -56 1 -19 25 -39
47 -40 22 0 32 -49 12 -57 -8 -3 -24 -1 -36 4 -33 15 -90 33 -94 30 -1 -2 15
-14 37 -26 25 -14 40 -29 40 -42 0 -10 -3 -18 -8 -18 -26 4 -32 -2 -22 -21 10
-18 7 -19 -31 -15 -29 3 -39 1 -36 -8 2 -7 15 -12 28 -12 16 -1 23 -6 22 -16
-2 -8 7 -20 20 -25 12 -6 16 -9 8 -7 -23 6 -50 -26 -45 -53 4 -20 0 -24 -20
-24 -13 0 -27 -7 -30 -16 -5 -13 -3 -14 6 -7 11 9 24 10 70 4 3 -1 4 -10 1
-21 -3 -10 2 -26 10 -35 18 -17 30 -5 21 20 -6 15 -4 15 14 4 15 -10 18 -17
11 -26 -15 -17 -1 -36 23 -30 14 4 17 2 9 -7 -6 -7 -7 -17 -3 -22 4 -4 0 -3
-9 4 -9 6 -19 9 -22 5 -4 -3 1 -12 11 -19 16 -13 16 -13 -2 -14 -11 0 -16 -5
-13 -14 3 -8 -1 -17 -9 -20 -24 -9 3 -55 29 -48 18 5 19 6 3 18 -10 6 -13 15
-8 18 5 3 20 -4 35 -16 22 -17 24 -23 12 -34 -17 -17 -29 -18 -19 -1 4 6 -1 4
-12 -5 -15 -13 -23 -15 -31 -7 -8 8 -11 6 -10 -7 1 -11 -4 -18 -10 -16 -7 1
-13 -2 -13 -6 0 -5 -6 -16 -13 -26 -12 -17 -14 -17 -20 -3 -3 9 0 23 8 31 13
12 12 16 -1 26 -12 11 -13 10 -8 -6 5 -14 -1 -11 -24 10 -18 17 -32 24 -32 18
0 -10 -5 -10 -21 -2 -23 13 -41 4 -19 -10 10 -6 5 -13 -23 -26 -20 -10 -37
-22 -37 -26 0 -5 9 -4 19 2 26 14 29 13 27 -7 0 -10 5 -17 12 -15 7 1 12 -9
12 -29 0 -29 -1 -30 -22 -15 -19 14 -23 14 -34 -2 -20 -26 -17 -50 7 -57 22
-7 43 11 32 28 -3 5 9 6 26 4 23 -4 31 -1 31 9 0 8 -7 17 -15 20 -27 11 -16
24 20 24 37 0 43 -8 23 -29 -11 -10 -10 -11 5 -6 9 4 17 12 17 18 0 6 7 19 16
28 16 17 17 16 35 -18 11 -21 19 -44 19 -51 0 -8 6 -12 15 -8 12 4 13 2 3 -13
-7 -11 -18 -17 -27 -14 -13 5 -14 3 -4 -8 7 -7 13 -23 13 -35 0 -13 11 -31 25
-42 33 -26 32 -41 -5 -53 -25 -9 -28 -14 -20 -30 9 -16 14 -17 35 -7 19 8 24
16 19 31 -4 13 -2 17 5 13 6 -4 11 -4 10 1 -1 4 -1 14 0 22 2 21 11 8 17 -24
3 -18 1 -24 -7 -20 -7 5 -6 -1 2 -16 13 -23 14 -28 17 -57 1 -7 7 -10 12 -7 8
5 8 11 0 20 -8 10 -8 15 0 20 8 5 8 11 0 20 -14 16 -4 38 12 29 7 -4 8 -2 4 4
-4 6 -14 8 -24 5 -13 -5 -14 -3 -5 7 6 7 9 19 6 26 -6 16 5 18 26 5 19 -12 20
-119 1 -132 -8 -5 -11 -9 -7 -9 11 0 -44 -50 -57 -51 -6 -1 -15 -1 -19 0 -5 1
-6 -3 -2 -9 10 -16 29 -12 65 15 18 14 36 22 39 19 3 -3 -3 -12 -14 -20 -19
-15 -19 -16 -1 -29 10 -7 15 -18 11 -24 -3 -6 -1 -11 4 -11 10 0 15 20 12 47
-1 7 3 13 9 13 5 0 10 -9 10 -21 0 -11 4 -18 9 -14 5 3 13 0 16 -6 4 -5 14 -8
24 -4 13 5 14 4 4 -6 -15 -15 -17 -53 -3 -44 6 4 8 10 5 15 -3 4 5 6 17 2 14
-3 19 -1 14 6 -5 8 0 9 16 3 24 -8 38 -51 18 -51 -7 0 -10 -6 -7 -13 3 -7 -4
-19 -15 -26 -13 -8 -17 -18 -13 -32 4 -11 1 -26 -5 -34 -7 -8 -9 -15 -5 -15 4
0 2 -6 -4 -13 -12 -15 -5 -27 17 -27 10 0 12 7 8 24 -9 35 12 43 25 9 6 -16
13 -22 16 -15 3 6 9 12 15 12 6 0 8 -6 5 -14 -3 -8 1 -20 8 -26 8 -7 14 -15
13 -18 -2 -21 5 -31 30 -38 15 -4 31 -6 37 -5 5 1 14 -4 20 -13 11 -14 38 -16
51 -4 3 4 12 4 19 2 7 -3 16 -1 20 5 7 13 45 15 45 3 0 -4 -4 -12 -10 -18 -6
-6 2 -9 23 -9 19 0 31 -5 30 -11 -1 -7 6 -10 18 -7 12 3 25 -1 32 -11 7 -9 32
-18 60 -21 27 -3 55 -12 63 -20 14 -13 14 -15 0 -15 -9 0 -16 -4 -16 -10 0 -5
-5 -10 -10 -10 -6 0 -9 3 -8 8 2 4 -1 8 -7 10 -5 2 -11 -1 -13 -6 -1 -5 11
-15 29 -22 33 -14 49 -4 49 32 0 9 5 20 12 24 8 5 9 0 6 -14 -4 -12 -2 -20 3
-16 5 3 9 0 9 -5 0 -6 -7 -11 -16 -11 -9 0 -14 -6 -11 -12 2 -7 13 -12 25 -11
21 3 38 -22 22 -32 -6 -4 -10 -11 -10 -17 0 -7 4 -7 13 -1 19 15 42 9 41 -10
-1 -9 2 -17 7 -17 5 0 9 12 9 26 l0 26 27 -20 c27 -20 28 -20 54 -1 l27 19 35
-34 c32 -30 54 -70 49 -88 -2 -9 57 9 72 21 7 6 16 8 19 4 9 -8 47 26 47 42 0
14 54 15 67 1 5 -5 2 -6 -5 -2 -17 10 -42 -11 -42 -35 0 -23 28 -25 36 -4 4 8
13 15 21 15 9 0 13 6 9 15 -3 9 0 15 10 15 9 0 14 6 11 13 -3 7 3 13 13 13 10
0 16 -6 13 -13 -8 -19 14 -40 40 -39 17 1 23 8 25 31 2 17 8 35 14 40 8 7 9 6
4 -3 -4 -6 -2 -12 3 -12 6 0 11 -7 11 -16 0 -11 5 -14 16 -10 9 3 22 6 30 6 8
0 14 7 14 16 0 13 3 14 13 5 10 -8 17 -7 25 1 9 9 12 8 12 -4 0 -9 -5 -18 -12
-20 -15 -5 -1 -28 18 -28 9 0 14 8 13 18 -4 40 2 44 22 18 15 -19 27 -25 40
-21 11 4 19 2 19 -5 0 -6 7 -4 17 5 13 14 14 18 2 25 -8 6 -17 4 -22 -3 -6 -8
-7 -8 -4 3 2 9 14 14 30 12 20 -2 26 2 29 19 4 26 17 33 38 18 11 -8 12 -12 3
-16 -21 -8 -15 -18 11 -18 20 0 22 3 13 14 -10 11 -8 13 12 6 19 -6 23 -4 18
8 -8 20 19 30 45 16 15 -8 22 -7 32 7 9 11 15 13 20 6 3 -6 2 -13 -4 -17 -5
-3 -10 -12 -10 -18 0 -9 2 -9 8 0 4 6 16 11 27 10 11 -1 19 3 18 10 -2 7 4 10
12 7 8 -3 22 2 31 11 12 11 20 13 27 6 16 -16 27 -13 21 3 -3 8 -13 17 -22 19
-15 4 -15 5 1 6 9 0 17 5 17 10 0 10 -32 10 -40 0 -3 -4 -14 -3 -25 2 -11 4
-14 8 -7 8 6 1 12 7 12 15 0 12 70 34 92 28 4 -1 15 14 24 33 9 19 20 32 25
29 5 -3 9 2 9 10 0 8 5 18 12 22 8 5 9 1 5 -12 -6 -14 -2 -13 14 6 14 17 19
19 15 7 -3 -11 0 -17 10 -17 11 0 14 -6 10 -16 -3 -9 -6 -22 -6 -30 0 -8 -6
-11 -16 -7 -14 5 -14 3 -3 -16 14 -21 30 -27 42 -14 4 3 2 12 -4 19 -7 9 -2
14 21 19 16 4 28 10 25 15 -9 14 19 28 57 28 20 0 44 5 55 11 14 8 9 10 -25 7
-32 -3 -40 0 -32 9 5 6 7 15 4 18 -8 8 19 51 54 89 20 22 29 25 43 17 11 -5
19 -7 19 -4 0 8 54 -28 63 -42 4 -7 13 -13 20 -13 9 0 8 3 -1 9 -7 4 -11 19
-8 33 4 22 1 25 -16 20 -13 -3 -29 5 -49 27 l-29 33 31 -7 31 -7 -17 32 c-12
23 -14 35 -6 43 8 8 11 8 11 0 0 -8 9 -9 31 -3 16 5 37 6 45 3 21 -8 17 6 -8
29 -16 14 -18 18 -6 14 9 -3 19 0 22 7 3 9 5 8 5 -1 1 -7 5 -10 11 -7 16 10
12 23 -7 27 -33 6 -23 65 19 110 38 42 43 74 6 41 -21 -18 -21 -18 -4 14 9 18
17 36 19 40 1 5 6 7 11 5 4 -1 15 3 24 10 13 11 14 10 10 -2 -2 -8 -15 -20
-27 -27 l-23 -11 23 -12 c13 -7 21 -9 17 -5 -12 13 12 49 24 37 8 -8 23 1 51
28 22 22 43 38 47 35 4 -2 13 8 19 23 l13 27 -27 -25 c-25 -23 -27 -24 -39 -8
-16 22 -66 24 -66 3 0 -15 16 -20 55 -17 19 2 19 1 -3 -18 -25 -20 -52 -17
-52 7 0 10 -6 12 -20 8 -11 -4 -20 -2 -20 4 0 6 7 11 16 11 10 0 14 7 12 23
-2 15 2 21 11 19 12 -3 12 0 1 13 -11 13 -10 15 4 9 9 -3 23 -1 31 6 8 6 19 9
25 5 6 -4 20 2 31 14 11 12 16 21 12 22 -4 0 -19 2 -31 3 -13 2 -26 -3 -29
-10 -2 -6 -13 -14 -23 -17 -13 -3 -17 0 -13 9 3 8 0 14 -6 14 -6 0 -11 7 -11
16 0 8 5 12 10 9 6 -3 10 1 10 9 0 19 16 21 23 4 3 -10 9 -8 24 5 11 9 23 14
26 10 10 -10 8 10 -3 27 -6 10 -10 11 -10 3 0 -7 -4 -13 -10 -13 -15 0 -12 21
7 44 13 16 11 15 -9 -3 -15 -13 -25 -27 -23 -32 3 -4 0 -11 -6 -15 -8 -5 -9
-3 -5 5 5 8 0 14 -13 18 -12 3 -21 10 -21 15 0 5 4 7 9 4 5 -4 7 3 4 15 -4 12
0 25 7 29 11 7 11 11 0 24 -21 27 -3 30 36 7 36 -22 52 -22 39 -2 -3 6 -12 11
-19 11 -15 0 -31 63 -17 68 5 2 7 11 4 20 -2 9 3 26 11 37 14 17 17 18 26 5 8
-13 10 -13 10 0 0 11 3 11 12 2 9 -9 9 -18 0 -37 -7 -15 -8 -25 -2 -25 6 0 10
5 10 11 0 6 9 8 20 4 14 -5 20 -2 20 10 0 9 -5 13 -11 10 -6 -4 -5 2 2 14 8
11 20 22 29 24 10 2 7 5 -8 9 -18 5 -25 1 -33 -15 -8 -20 -9 -20 -7 -2 2 11
-1 25 -5 32 -4 6 -2 15 4 19 8 5 10 2 5 -7 -4 -8 0 -5 9 6 12 14 19 16 22 7 7
-18 23 -4 23 20 0 14 -5 18 -16 14 -8 -3 -24 3 -35 13 -17 15 -18 20 -5 30 16
14 14 57 -4 74 -9 9 -11 6 -10 -13 3 -41 1 -47 -20 -53 -13 -3 -21 1 -25 12
-6 21 -31 24 -62 9 -18 -9 -27 -8 -41 5 -10 10 -22 14 -26 10 -4 -4 -3 5 3 20
6 15 7 27 3 27 -4 0 4 6 18 13 22 11 27 10 42 -8 l16 -20 26 24 c14 14 26 29
25 35 0 6 -3 5 -6 -1 -2 -7 -9 -13 -14 -13 -6 0 -7 5 -4 10 3 6 -1 18 -10 27
-14 14 -18 14 -26 2 -5 -8 -9 -9 -9 -4 0 6 -8 1 -17 -10 l-16 -20 8 20 c18 48
14 93 -11 120 -23 25 -32 48 -16 43 4 -2 8 1 9 5 1 4 9 19 18 33 16 24 15 26
-10 46 -14 11 -24 23 -21 26 7 7 -13 32 -25 32 -9 0 18 -49 32 -60 14 -10 -3
-59 -22 -65 -18 -6 -20 -12 -23 -55 -1 -8 -6 -13 -11 -10 -6 2 -9 11 -7 18 2
7 -4 24 -13 38 -17 26 -16 26 30 28 40 1 49 36 10 36 -15 0 -24 -4 -20 -10 3
-5 2 -10 -4 -10 -5 0 -10 8 -10 18 1 9 -2 28 -6 42 -5 19 -4 22 4 10 6 -8 11
-13 12 -10 0 3 2 13 4 23 2 11 -2 16 -12 15 -8 -2 -20 11 -29 31 -12 30 -12
32 2 27 10 -4 14 -2 11 6 -2 7 -10 12 -16 10 -7 -1 -10 2 -6 7 3 6 -4 15 -15
21 -11 6 -20 7 -20 2 0 -5 -7 -9 -15 -9 -22 0 -18 18 5 24 11 3 20 12 20 20 0
9 6 13 14 10 8 -3 17 -1 20 6 4 7 4 1 2 -12 -3 -13 0 -34 5 -48 8 -21 14 -24
46 -21 25 2 37 8 35 16 -1 7 3 22 9 34 8 15 8 19 0 14 -12 -8 -34 37 -33 66 1
30 -15 29 -28 -2 -12 -30 -33 -39 -45 -20 -4 6 -1 17 5 25 16 19 4 35 -27 35
-23 0 -25 -3 -20 -28 3 -16 7 -32 9 -38 2 -5 -1 -11 -6 -14 -5 -3 -11 6 -13
19 -2 14 -7 29 -12 35 -6 7 -4 18 5 30 12 17 11 21 -4 32 -10 8 -12 13 -4 14
22 0 12 26 -22 57 -19 17 -39 26 -43 22 -13 -13 -55 20 -49 38 4 9 2 11 -6 7
-8 -5 -9 -2 -5 9 4 11 1 17 -8 17 -8 0 -12 -6 -9 -14 3 -8 -3 -19 -15 -25 -17
-9 -20 -9 -15 3 4 10 -3 17 -20 22 -20 5 -25 11 -21 24 4 14 -1 20 -25 25 -16
4 -30 10 -31 13 -6 47 -5 59 5 72 10 13 9 13 -7 1 -22 -17 -29 -10 -30 26 0
15 -2 22 -4 16 -3 -7 -9 -13 -14 -13 -6 0 -8 4 -4 9 3 5 -1 16 -9 23 -8 9 -12
25 -9 41 4 20 1 27 -10 27 -9 0 -20 -7 -24 -15 -10 -17 -96 -24 -128 -10 -18
8 -19 7 -6 -8 8 -10 12 -18 10 -20 -41 -23 -49 -26 -54 -16 -4 5 -2 16 5 24 6
7 10 19 9 27 -2 7 2 23 9 35 10 19 10 20 -9 16 -18 -5 -20 -3 -14 15 5 19 3
22 -18 20 -13 -1 -24 -7 -24 -13 0 -36 -4 -59 -11 -50 -4 6 -16 17 -26 25 -18
14 -18 13 -12 -8 6 -17 3 -22 -10 -22 -10 0 -15 3 -11 6 6 7 -17 34 -30 35 -4
1 -17 5 -28 11 -18 8 -19 8 -2 -5 22 -18 22 -31 -1 -25 -20 5 -22 0 -23 -59
-1 -22 -6 -33 -16 -33 -8 0 -11 5 -8 10 3 6 1 10 -4 10 -15 0 -14 27 2 33 9 4
8 8 -3 16 -8 6 -11 11 -6 11 5 0 3 6 -3 14 -9 11 -9 15 1 18 7 3 13 17 13 31
1 34 -3 34 -15 1 -9 -22 -13 -24 -25 -14 -18 15 -20 56 -2 63 7 3 4 6 -6 6
-10 1 -15 6 -12 11 3 6 1 10 -4 10 -6 0 -11 -17 -12 -37 0 -21 -3 -32 -6 -25
-2 6 -11 12 -18 12 -7 0 -16 -6 -18 -12 -4 -10 -6 -10 -6 0 -1 6 -6 12 -12 12
-6 0 -9 -7 -5 -15 8 -22 -2 -18 -29 11 -18 20 -25 23 -25 11 0 -9 5 -19 10
-22 6 -4 7 -11 4 -17 -4 -7 -2 -8 4 -4 13 8 32 -24 32 -53 0 -12 -4 -21 -10
-21 -5 0 -7 7 -4 15 8 19 -37 63 -60 59 -12 -2 -16 2 -12 12 9 23 -4 42 -25
37 -21 -6 -25 -18 -9 -28 18 -11 11 -21 -25 -35 -24 -9 -31 -16 -23 -22 9 -5
8 -8 -4 -8 -11 0 -15 -5 -12 -14 7 -19 -25 -29 -42 -12 -20 21 -17 28 9 22 12
-3 16 -3 8 0 -11 5 -8 11 10 25 24 18 24 19 2 19 -12 0 -25 5 -28 10 -3 6 -1
10 5 10 7 0 10 6 7 13 -2 6 2 24 9 38 13 26 10 39 -8 39 -5 0 -6 -4 -3 -10z
m115 -120 c0 -5 -7 -7 -15 -4 -8 4 -15 8 -15 10 0 2 7 4 15 4 8 0 15 -4 15
-10z m-520 -39 c0 -5 -10 -11 -22 -14 -22 -6 -22 -6 -4 8 23 17 26 18 26 6z
m75 -1 c3 -5 1 -10 -4 -10 -6 0 -11 5 -11 10 0 6 2 10 4 10 3 0 8 -4 11 -10z
m415 -6 c0 -14 -3 -14 -15 -4 -8 7 -15 14 -15 16 0 2 7 4 15 4 8 0 15 -7 15
-16z m354 -24 c-4 -19 -1 -29 10 -33 9 -4 16 -11 16 -17 0 -6 -4 -9 -9 -5 -5
3 -12 1 -16 -5 -11 -18 -26 -11 -17 8 11 19 -2 62 -18 62 -5 0 -10 6 -10 14 0
9 8 12 25 9 20 -4 23 -9 19 -33z m71 12 c16 -12 16 -32 0 -38 -21 -8 -47 20
-32 35 13 13 18 13 32 3z m-1035 -6 c0 -3 -4 -8 -10 -11 -5 -3 -10 -1 -10 4 0
6 5 11 10 11 6 0 10 -2 10 -4z m711 -23 c13 -16 12 -17 -3 -4 -10 7 -18 15
-18 17 0 8 8 3 21 -13z m319 -27 c0 -3 -4 -8 -10 -11 -5 -3 -10 -1 -10 4 0 6
5 11 10 11 6 0 10 -2 10 -4z m-116 -27 c-8 -14 -21 -11 -21 5 0 8 6 12 14 9 7
-3 10 -9 7 -14z m-34 -19 c0 -5 -4 -10 -10 -10 -5 0 -10 5 -10 10 0 6 5 10 10
10 6 0 10 -4 10 -10z m-142 -45 c-1 -13 -5 -22 -8 -19 -8 9 -7 53 2 48 4 -3 7
-16 6 -29z m114 -3 c-7 -2 -10 -8 -6 -13 3 -5 0 -9 -5 -9 -13 0 -13 3 -5 24 3
9 11 13 17 9 8 -5 7 -8 -1 -11z m-165 -24 c-17 -11 -28 1 -14 16 8 10 14 11
19 3 4 -6 2 -15 -5 -19z m108 1 c-11 -16 -31 -10 -32 11 -2 17 1 18 18 10 11
-6 17 -15 14 -21z m-205 11 c0 -5 -7 -7 -15 -4 -8 4 -15 8 -15 10 0 2 7 4 15
4 8 0 15 -4 15 -10z m66 -52 c-9 -5 -14 -13 -11 -19 4 -5 1 -9 -4 -9 -15 0
-14 37 2 43 20 7 31 -5 13 -15z m109 -8 c-11 -18 -15 -158 -6 -184 6 -14 6
-28 1 -31 -10 -6 -17 25 -25 109 -6 61 9 131 26 120 5 -3 7 -9 4 -14z m640 11
c3 -5 1 -12 -5 -16 -5 -3 -10 1 -10 9 0 18 6 21 15 7z m-817 -85 c-6 -24 -5
-67 2 -109 6 -37 8 -72 5 -77 -3 -4 2 -11 11 -14 10 -4 14 -16 12 -38 -8 -90
-61 31 -60 137 1 83 6 132 17 166 l9 24 6 -25 c3 -14 2 -43 -2 -64z m222 60
c0 -3 -4 -8 -10 -11 -5 -3 -10 -1 -10 4 0 6 5 11 10 11 6 0 10 -2 10 -4z
m-146 -33 c-1 -16 -3 -28 -4 -28 -1 0 -3 -9 -5 -20 -2 -11 -8 -42 -12 -70 l-9
-50 -11 35 c-6 19 -10 53 -8 75 2 22 4 48 4 57 1 11 6 15 15 12 8 -3 17 -1 21
5 9 16 11 14 9 -16z m335 6 c-14 -8 -29 -3 -29 11 0 4 9 6 21 3 15 -4 17 -8 8
-14z m-196 -30 c-9 -9 -12 -7 -10 9 1 14 5 18 11 12 7 -7 6 -14 -1 -21z m-337
-34 c-5 -40 1 -45 14 -12 8 20 9 19 9 -10 1 -17 6 -35 12 -38 6 -4 8 -13 5
-20 -3 -8 -1 -15 5 -17 5 -2 11 -13 14 -26 3 -20 2 -21 -18 -11 l-22 10 21
-18 c20 -17 39 -53 28 -53 -2 0 -16 7 -30 16 -13 9 -27 15 -29 12 -3 -2 13
-14 34 -26 41 -23 81 -96 81 -147 0 -34 -46 -131 -66 -139 -9 -4 -28 4 -43 16
-15 13 -43 32 -62 42 -47 25 -56 40 -64 117 -14 125 -13 142 6 193 21 55 83
146 99 146 6 0 8 -15 6 -35z m534 0 c0 -8 -2 -15 -4 -15 -2 0 -6 7 -10 15 -3
8 -1 15 4 15 6 0 10 -7 10 -15z m-856 -56 c26 -17 46 -33 46 -37 0 -4 12 -13
28 -19 24 -11 62 -58 62 -77 0 -13 -47 -5 -80 15 -60 36 -118 99 -90 99 5 0
10 -7 10 -15 0 -8 5 -15 11 -15 5 0 8 4 5 9 -3 4 -10 21 -16 37 -11 28 -12 28
-26 10 -12 -17 -14 -17 -14 -3 0 9 -10 26 -22 38 l-23 21 32 -16 c18 -9 52
-30 77 -47z m206 47 c0 -22 -32 -92 -37 -79 -6 17 16 93 27 93 6 0 10 -6 10
-14z m454 -2 c3 -8 2 -12 -4 -9 -6 3 -10 10 -10 16 0 14 7 11 14 -7z m-542
-30 c2 -19 0 -37 -4 -40 -4 -3 -8 0 -8 6 0 6 -11 15 -25 20 -14 5 -25 14 -25
20 0 6 4 9 9 6 5 -3 14 1 21 9 19 23 27 18 32 -21z m1248 32 c0 -2 -7 -9 -15
-16 -13 -11 -14 -10 -9 4 5 14 24 23 24 12z m-2010 -44 c0 -12 -3 -12 -15 -2
-8 7 -15 13 -15 15 0 1 7 2 15 2 8 0 15 -7 15 -15z m70 -23 c0 -4 -4 -10 -9
-13 -5 -3 -8 2 -7 12 0 9 -5 16 -11 15 -14 -3 -17 9 -6 21 7 7 33 -21 33 -35z
m1958 23 c-9 -2 -20 -12 -23 -23 -4 -10 -11 -19 -17 -19 -5 0 -7 6 -4 13 3 6
9 19 12 28 4 11 13 15 27 11 18 -5 19 -7 5 -10z m-585 -12 c3 -11 1 -20 -4
-20 -5 0 -9 9 -9 20 0 11 2 20 4 20 2 0 6 -9 9 -20z m-943 -15 c0 -14 -4 -25
-10 -25 -5 0 -10 4 -10 9 0 5 -3 16 -6 25 -4 11 -1 16 10 16 10 0 16 -9 16
-25z m855 -52 c-3 -15 -10 -21 -18 -16 -8 4 -7 1 2 -10 18 -23 7 -60 -27 -92
-33 -31 -42 -31 -42 -1 0 28 48 136 60 136 5 0 7 7 4 15 -4 8 0 23 7 32 13 15
14 14 17 -12 2 -15 1 -38 -3 -52z m-935 57 c0 -5 -5 -10 -11 -10 -5 0 -7 5 -4
10 3 6 8 10 11 10 2 0 4 -4 4 -10z m1643 -23 c-3 -5 -9 -3 -14 4 -4 7 -5 17
-2 22 3 5 9 3 14 -4 4 -7 5 -17 2 -22z m-2023 9 c0 -17 -14 -29 -23 -20 -8 8
3 34 14 34 5 0 9 -6 9 -14z m540 -22 c0 -8 -6 -11 -15 -8 -8 4 -15 12 -15 20
0 8 6 11 15 8 8 -4 15 -12 15 -20z m638 -16 c12 -56 5 -135 -14 -167 -24 -40
-44 -48 -44 -16 0 15 6 25 14 25 20 0 27 27 9 34 -13 5 -15 17 -9 61 7 58 23
111 32 102 3 -3 8 -20 12 -39z m914 20 c-6 -6 -15 -8 -19 -4 -4 4 -1 11 7 16
19 12 27 3 12 -12z m-2217 -8 c11 -17 -5 -31 -19 -17 -14 12 -12 27 4 27 5 0
12 -4 15 -10z m282 4 c-3 -3 -12 -4 -19 -1 -8 3 -5 6 6 6 11 1 17 -2 13 -5z
m1341 -14 c18 -30 -2 -64 -34 -57 -13 2 -24 -1 -25 -7 0 -7 -3 -6 -6 1 -5 13
33 83 45 83 4 0 13 -9 20 -20z m112 9 c0 -15 -12 -39 -20 -39 -10 0 -22 29
-15 39 6 10 35 10 35 0z m256 -27 c-9 -8 -26 10 -26 26 1 15 2 15 15 -2 8 -11
13 -21 11 -24z m-1677 -3 c-6 -11 -15 -16 -22 -12 -8 5 -8 8 0 10 7 3 9 11 6
19 -4 10 0 12 11 8 12 -5 13 -10 5 -25z m152 -9 c5 0 9 -8 9 -17 0 -15 -3 -15
-21 4 -14 14 -19 26 -13 34 7 11 9 10 12 -3 2 -10 8 -18 13 -18z m95 -16 c-4
-10 -2 -12 6 -8 7 5 9 0 6 -14 -4 -12 -3 -22 2 -22 15 0 21 -33 8 -42 -15 -9
-48 25 -48 51 0 9 -5 22 -11 28 -7 7 -9 19 -5 28 5 13 10 14 27 5 12 -7 18
-18 15 -26z m1227 -34 c-19 -38 -39 -70 -44 -70 -17 0 -22 30 -8 47 12 14 12
16 -1 8 -13 -8 -13 -6 -1 8 7 9 18 14 25 10 6 -4 5 1 -3 10 -11 14 -11 20 -1
32 11 14 14 13 25 -1 11 -15 12 -15 18 5 3 11 10 21 15 21 5 0 -6 -31 -25 -70z
m-1134 39 c25 -9 30 -14 19 -21 -9 -6 -6 -7 10 -3 15 5 30 1 42 -10 10 -9 24
-14 30 -10 13 8 120 -42 125 -59 10 -29 11 -106 2 -109 -16 -5 -175 39 -192
53 -8 7 -15 17 -15 23 0 6 -13 31 -29 56 -33 52 -47 91 -33 91 5 0 24 -5 41
-11z m1531 -4 c0 -8 -7 -15 -16 -15 -14 0 -14 3 -4 15 7 8 14 15 16 15 2 0 4
-7 4 -15z m25 5 c3 -5 1 -10 -4 -10 -6 0 -11 5 -11 10 0 6 2 10 4 10 3 0 8 -4
11 -10z m-516 -85 c-3 -46 -8 -87 -11 -91 -13 -12 -21 66 -9 80 8 9 8 15 2 18
-11 3 7 78 18 78 3 0 4 -38 0 -85z m161 71 c0 -3 -4 -8 -10 -11 -5 -3 -10 -1
-10 4 0 6 5 11 10 11 6 0 10 -2 10 -4z m-1478 -20 c4 -6 21 -10 39 -10 33 -1
55 -26 23 -26 -14 0 -15 -3 -6 -12 10 -10 15 -10 22 2 7 12 12 11 29 -4 12
-11 21 -26 21 -35 0 -12 2 -13 8 -3 6 9 14 6 31 -12 l22 -24 -25 -6 c-27 -7
-54 1 -73 20 -7 7 -23 21 -35 31 -13 10 -28 28 -35 38 -6 11 -16 19 -23 17 -6
-1 -9 2 -5 8 3 5 -1 10 -9 10 -8 0 -18 5 -21 11 -9 13 27 8 37 -5z m35 8 c-3
-3 -12 -4 -19 -1 -8 3 -5 6 6 6 11 1 17 -2 13 -5z m1148 -88 c19 -32 35 -63
35 -68 0 -6 9 -22 19 -37 20 -27 20 -28 0 -44 -10 -9 -19 -24 -19 -32 0 -17
12 -13 43 13 16 14 19 14 31 -3 14 -19 13 -26 -6 -77 -9 -24 -116 -108 -138
-108 -6 0 -10 -4 -10 -10 0 -5 -12 -22 -27 -38 -16 -16 -49 -53 -74 -83 -47
-54 -131 -112 -181 -124 -24 -6 -29 -3 -43 32 -20 46 -48 165 -50 213 -2 42
20 111 51 162 20 31 51 58 149 130 5 4 24 18 40 31 17 12 47 34 67 47 21 14
38 33 38 42 0 18 20 30 32 19 4 -4 24 -33 43 -65z m285 58 c0 -8 -5 -12 -10
-9 -6 4 -8 11 -5 16 9 14 15 11 15 -7z m310 -16 c0 -18 -2 -20 -9 -8 -6 8 -7
18 -5 22 9 14 14 9 14 -14z m70 -10 c0 -13 -23 -5 -28 10 -2 7 2 10 12 6 9 -3
16 -11 16 -16z m-594 -14 c-3 -9 -6 -20 -6 -25 0 -6 -4 -8 -9 -5 -12 8 -2 46
11 46 6 0 7 -7 4 -16z m198 -58 c-3 -14 -20 -38 -38 -53 -26 -22 -32 -23 -34
-9 -5 22 34 84 56 89 23 5 24 3 16 -27z m-1414 -7 c0 -5 -4 -9 -10 -9 -5 0
-10 7 -10 16 0 8 5 12 10 9 6 -3 10 -10 10 -16z m1494 -43 c-3 -9 -10 -16 -15
-16 -6 0 -5 9 1 21 13 24 24 20 14 -5z m-1666 -21 c1 -6 -2 -10 -8 -9 -25 3
-30 5 -30 12 0 12 34 8 38 -3z m497 -36 c130 -40 205 -69 205 -80 0 -5 8 -9
18 -9 30 0 57 -40 86 -129 28 -84 42 -195 28 -217 -4 -6 -16 -16 -28 -22 -29
-15 -65 6 -159 92 -42 39 -82 71 -90 72 -8 1 -34 17 -57 36 -59 47 -85 62
-143 83 -66 24 -244 120 -281 152 -18 15 -22 22 -11 19 11 -3 16 -2 12 4 -17
27 121 38 197 15 41 -12 46 -12 41 1 -3 8 -12 13 -19 10 -8 -3 -14 0 -14 6 0
17 102 2 215 -33z m-550 -17 c-2 -2 -12 5 -24 17 -13 13 -16 21 -8 24 11 4 40
-34 32 -41z m1655 8 c0 -42 -17 -74 -50 -93 -25 -15 -70 -23 -70 -13 0 17 14
35 24 29 8 -4 8 -2 -1 7 -15 16 0 49 35 74 18 14 27 16 30 8 2 -7 8 -12 14
-12 6 0 8 7 4 15 -3 8 -1 15 4 15 6 0 10 -13 10 -30z m132 -16 c-5 -28 -62
-60 -89 -50 -12 5 -11 11 4 36 9 17 23 28 30 26 7 -3 15 -1 18 4 4 6 14 10 24
10 14 0 17 -6 13 -26z m-1822 11 c0 -2 -10 -13 -22 -24 -21 -20 -21 -21 -3
-41 17 -18 17 -20 0 -26 -21 -9 -37 14 -29 41 5 16 4 18 -7 8 -21 -21 -34 -15
-37 15 -1 21 0 23 8 12 9 -13 10 -13 10 0 0 13 1 13 11 0 7 -11 12 -12 15 -3
3 7 11 10 19 7 7 -3 16 -1 20 5 6 11 15 15 15 6z m136 -42 c15 -16 15 -17 -2
-24 -23 -8 -54 7 -54 26 0 20 35 19 56 -2z m1774 -12 c0 -5 -7 -14 -15 -21
-16 -14 -18 -10 -9 14 6 17 24 22 24 7z m-1872 -28 c6 -19 -25 -16 -32 3 -4
11 -1 14 11 12 9 -2 18 -9 21 -15z m-328 -9 c0 -8 -4 -12 -10 -9 -5 3 -10 10
-10 16 0 5 5 9 10 9 6 0 10 -7 10 -16z m219 -31 c1 -1 0 -7 -4 -13 -5 -8 -11
-5 -21 7 -19 25 -17 38 4 22 9 -7 19 -14 21 -16z m1826 -19 c-71 -59 -123 -95
-160 -113 -45 -20 -205 -38 -205 -22 0 15 90 76 145 99 102 42 181 71 205 74
41 6 48 -11 15 -38z m-1548 9 c4 -12 -36 -25 -49 -17 -5 3 -3 13 4 22 12 15
11 16 -4 3 -10 -7 -15 -17 -12 -22 8 -14 -28 -10 -56 6 l-25 13 25 6 c67 15
110 11 117 -11z m1712 -1 c-19 -31 -50 -47 -60 -31 -6 11 -9 10 -15 -4 -3 -9
-10 -14 -15 -11 -14 8 11 46 26 40 7 -2 16 1 19 9 4 11 44 25 54 19 2 -1 -2
-11 -9 -22z m-1932 -8 c-3 -3 -12 -4 -19 -1 -8 3 -5 6 6 6 11 1 17 -2 13 -5z
m38 -4 c-3 -5 -11 -10 -16 -10 -6 0 -7 5 -4 10 3 6 11 10 16 10 6 0 7 -4 4
-10z m363 -60 c56 -27 83 -52 70 -66 -9 -9 -205 -62 -247 -67 -23 -2 -43 -1
-46 3 -3 4 -18 6 -35 4 -19 -2 -29 0 -25 6 3 6 -5 10 -18 10 -13 0 -32 8 -41
19 -16 18 -16 19 10 25 14 4 24 10 20 13 -3 3 -1 12 5 20 12 14 -1 18 -46 15
-45 -4 13 18 66 24 30 3 57 8 62 11 4 2 10 -3 13 -11 3 -9 11 -16 16 -16 7 0
6 5 -1 13 -16 20 -10 22 66 25 59 2 77 -1 131 -28z m1518 -15 c4 -8 10 -12 15
-9 5 3 9 1 9 -5 0 -17 -46 -42 -64 -35 -10 4 -22 0 -29 -9 -18 -24 -52 -26
-52 -3 0 12 17 29 50 47 59 33 64 34 71 14z m-171 -26 c-23 -19 -45 -19 -45 1
0 10 52 29 63 23 4 -3 -4 -14 -18 -24z m-2008 -12 c-6 -19 -23 -18 -24 2 -1
14 3 18 13 14 8 -3 13 -10 11 -16z m2338 -7 c3 -6 -1 -7 -9 -4 -18 7 -21 14
-7 14 6 0 13 -4 16 -10z m5 -44 c0 -2 -7 -7 -16 -10 -8 -3 -12 -2 -9 4 6 10
25 14 25 6z m-190 -16 c0 -5 -7 -10 -16 -10 -8 0 -12 5 -9 10 3 6 10 10 16 10
5 0 9 -4 9 -10z m252 -2 c-17 -17 -15 -33 3 -18 10 9 15 9 15 1 0 -6 -4 -11
-9 -11 -5 0 -11 -14 -15 -31 -3 -18 -10 -28 -17 -24 -8 5 -8 10 0 18 15 15 14
27 -4 27 -23 0 -18 24 8 36 30 16 33 16 19 2z m-2147 -17 c-3 -6 -11 -11 -17
-11 -6 0 -6 6 2 15 14 17 26 13 15 -4z m672 -69 c40 -43 73 -80 73 -84 0 -14
-45 -36 -102 -51 -57 -15 -150 -16 -258 -3 -30 4 -77 9 -103 11 -42 3 -106 29
-169 68 -26 17 -23 22 15 25 31 3 92 20 112 32 6 4 28 11 50 17 124 35 151 40
127 24 -10 -6 -10 -10 3 -21 13 -11 15 -10 10 1 -8 22 6 35 55 51 78 26 106
16 187 -70z m967 72 c15 -40 -159 -153 -268 -173 -61 -11 -116 -7 -127 10 -11
18 15 64 53 92 52 38 97 56 167 68 36 5 67 12 70 15 2 2 26 4 52 4 34 0 49 -4
53 -16z m406 12 c0 -2 -8 -10 -17 -17 -16 -13 -17 -12 -4 4 13 16 21 21 21 13z
m-250 -41 c11 -2 27 -8 36 -13 28 -16 -54 -62 -108 -62 -63 0 -71 9 -48 48 23
38 57 54 83 40 10 -5 27 -11 37 -13z m-1677 -2 c37 -7 34 -19 -5 -27 -93 -17
-98 -17 -114 -2 -14 15 -14 17 0 22 9 3 23 1 30 -5 10 -8 16 -9 21 -1 3 5 1
10 -5 10 -6 0 -8 5 -4 11 3 6 16 8 28 4 11 -4 33 -9 49 -12z m1975 5 c-3 -7
-13 -15 -24 -17 -16 -3 -17 -1 -5 13 16 19 34 21 29 4z m217 -39 c4 -5 4 -13
0 -17 -3 -3 -10 0 -15 8 -6 8 -10 10 -10 4 0 -20 -28 -24 -33 -5 -3 13 3 17
24 19 15 1 31 -3 34 -9z m-395 -11 c-1 -22 -27 -48 -48 -48 -34 0 -34 17 1 39
37 24 47 26 47 9z m216 -52 c-23 -22 -26 -23 -26 -6 0 10 9 22 20 25 11 3 21
14 21 23 1 16 2 16 6 0 2 -9 -7 -28 -21 -42z m-2440 17 c-7 -7 -26 7 -26 19 0
6 6 6 15 -2 9 -7 13 -15 11 -17z m2334 13 c0 -19 -17 -30 -22 -15 -3 8 -10 6
-21 -5 -20 -20 -22 -14 -5 14 15 23 48 27 48 6z m-2020 -42 c0 -18 -24 -18
-39 0 -9 11 -9 15 1 19 19 6 38 -3 38 -19z m-333 -9 c-7 -7 -18 -10 -24 -8 -7
3 -13 0 -13 -7 0 -6 -4 -9 -9 -5 -6 3 -14 -2 -19 -11 -8 -14 -10 -14 -15 -1
-6 16 17 31 54 36 5 0 8 5 5 10 -4 5 3 7 13 4 16 -4 17 -8 8 -18z m2053 -26
c0 -5 -5 -9 -11 -9 -5 0 -7 -4 -4 -10 10 -17 41 -11 51 10 9 18 11 18 42 3 22
-11 31 -21 27 -31 -4 -12 -3 -12 9 -3 11 10 21 9 45 -4 17 -8 31 -20 31 -26 0
-6 4 -8 9 -4 5 3 12 1 15 -4 6 -9 -21 -20 -69 -28 -16 -3 -35 -9 -41 -14 -6
-5 -19 -7 -28 -3 -9 3 -16 1 -16 -4 0 -6 -17 -14 -37 -18 -21 -4 -43 -10 -48
-15 -6 -4 -34 -11 -63 -15 -39 -5 -52 -3 -52 6 0 9 -3 10 -13 1 -8 -6 -17 -8
-20 -4 -13 12 -7 23 13 23 10 0 24 10 31 22 10 19 12 19 21 5 5 -10 13 -17 19
-17 5 0 4 9 -3 20 -18 28 -35 25 -75 -15 -39 -39 -37 -39 -100 19 -38 35 -33
46 34 76 24 11 54 27 67 37 18 14 37 17 94 15 40 -2 72 -8 72 -13z m300 -9 c0
-12 -48 -41 -54 -32 -9 15 24 52 39 46 8 -4 15 -10 15 -14z m133 -16 c-3 -8
-9 -14 -13 -14 -10 0 -20 37 -12 44 9 10 31 -15 25 -30z m-2493 18 c0 -11 -22
-32 -32 -32 -5 0 -4 9 2 20 11 20 30 28 30 12z m2297 -5 c-5 -15 -29 -16 -34
-2 -2 6 6 11 18 12 12 1 19 -3 16 -10z m-1937 -12 c0 -8 -4 -15 -9 -15 -5 0
-11 7 -15 15 -3 9 0 15 9 15 8 0 15 -7 15 -15z m60 0 c0 -16 -9 -19 -34 -9
-25 9 -19 24 9 24 16 0 25 -6 25 -15z m35 6 c3 -5 1 -12 -5 -16 -5 -3 -10 1
-10 9 0 18 6 21 15 7z m1960 -41 c-3 -5 -10 -10 -16 -10 -5 0 -9 5 -9 10 0 6
7 10 16 10 8 0 12 -4 9 -10z m-1140 -41 c24 -26 27 -98 5 -146 -22 -50 -154
-166 -225 -199 -28 -13 -77 -26 -110 -28 -126 -11 -195 -25 -261 -54 -38 -17
-70 -27 -72 -22 -6 16 19 51 30 44 7 -5 8 -2 3 5 -4 8 3 23 17 39 14 15 36 45
49 67 81 136 286 281 438 309 76 14 103 11 126 -15z m-807 -6 c-16 -20 -127
-72 -133 -63 -4 7 44 35 57 32 4 -1 9 7 13 17 6 21 44 41 63 33 10 -3 10 -7 0
-19z m188 16 c21 -1 64 -8 94 -15 30 -7 67 -15 82 -16 15 -2 30 -6 33 -9 2 -3
-25 -29 -61 -58 -52 -42 -74 -53 -105 -55 -21 0 -39 -5 -39 -9 0 -5 -3 -6 -8
-3 -4 2 -30 5 -57 7 -28 1 -61 8 -75 14 -14 7 -44 16 -67 20 -24 4 -45 11 -48
16 -4 5 15 21 41 36 26 16 61 38 80 50 30 20 71 33 85 26 3 -1 23 -3 45 -4z
m1834 1 c0 -5 -7 -7 -15 -4 -8 4 -15 8 -15 10 0 2 7 4 15 4 8 0 15 -4 15 -10z
m200 0 c0 -5 -2 -10 -4 -10 -3 0 -8 5 -11 10 -3 6 -1 10 4 10 6 0 11 -4 11
-10z m-1160 -14 c142 -16 208 -72 220 -183 5 -51 4 -62 -5 -49 -15 20 -25 20
-25 0 0 -9 9 -18 19 -21 23 -6 34 -66 36 -183 0 -69 -22 -200 -37 -215 -10
-10 -48 14 -48 30 0 7 -5 17 -11 21 -8 4 -9 0 -4 -15 4 -14 2 -21 -7 -21 -22
0 -59 30 -52 42 4 6 3 8 -3 5 -13 -8 -37 18 -109 118 -80 111 -96 153 -99 248
-4 140 27 245 68 232 7 -2 32 -6 57 -9z m760 -67 c0 -13 -17 -11 -24 4 -5 10
-7 10 -12 0 -7 -15 -90 -18 -99 -3 -5 9 7 13 60 23 25 4 75 -12 75 -24z m350
1 c0 -5 -2 -10 -4 -10 -3 0 -8 5 -11 10 -3 6 -1 10 4 10 6 0 11 -4 11 -10z
m-260 -25 c14 -16 10 -18 -14 -9 -9 3 -16 10 -16 15 0 14 16 11 30 -6z m-52
-33 c7 -1 11 -6 7 -11 -3 -5 -27 -7 -53 -4 -26 3 -52 6 -59 6 -7 0 -10 3 -8 7
3 5 74 6 113 2z m-2058 -6 c0 -3 -4 -8 -10 -11 -5 -3 -10 -1 -10 4 0 6 5 11
10 11 6 0 10 -2 10 -4z m153 -13 c20 -12 2 -18 -47 -15 -30 2 -64 -1 -75 -7
-28 -15 -27 -3 1 21 19 16 31 18 68 13 25 -4 48 -9 53 -12z m1645 -4 c18 -6
39 -17 47 -26 17 -17 20 -48 4 -37 -6 3 -3 -5 6 -20 10 -14 21 -26 26 -26 16
0 9 -47 -9 -63 -10 -9 -39 -25 -64 -37 -50 -22 -79 -18 -110 17 -18 20 -68
143 -68 168 0 27 110 42 168 24z m-224 -25 c3 -9 6 -24 6 -35 0 -11 14 -43 30
-72 36 -64 37 -71 8 -64 -22 6 -22 5 -4 -8 10 -8 22 -12 26 -10 13 8 20 -24
11 -47 -8 -20 -10 -21 -16 -5 -4 9 -11 17 -17 17 -5 0 -6 -4 -3 -10 3 -5 17
-39 30 -75 21 -60 22 -65 5 -65 -12 0 -17 -8 -17 -25 0 -14 5 -25 11 -25 6 0
5 -4 -3 -9 -7 -5 -10 -14 -7 -20 13 -21 -11 -11 -38 15 -25 26 -30 36 -27 62
1 6 -3 12 -9 12 -5 0 -10 21 -10 48 0 36 3 43 11 32 8 -12 9 -11 5 5 -3 11 -8
45 -11 75 -3 30 -9 78 -14 105 -8 43 -8 72 -2 108 2 13 29 7 35 -9z m-1494
-33 c0 -27 -17 -35 -29 -14 -9 15 -12 15 -20 4 -6 -9 -11 -10 -15 -2 -4 6 -1
13 6 15 7 3 20 7 28 9 26 9 30 7 30 -12z m329 1 c13 -25 -7 -63 -41 -80 -31
-14 -148 -24 -148 -12 0 4 7 10 15 14 8 3 15 10 15 16 0 7 -12 4 -30 -6 -27
-17 -32 -17 -62 -2 -46 21 -48 53 -5 67 48 15 166 8 205 -13 19 -10 36 -15 38
-13 3 2 -10 10 -28 18 -32 13 -32 13 -8 20 38 11 39 10 49 -9z m1531 -37 c-6
-8 -6 -15 2 -23 8 -8 9 -12 1 -12 -12 0 -34 55 -26 64 12 11 34 -16 23 -29z
m122 25 c6 0 8 -3 5 -7 -12 -12 13 -31 36 -27 19 4 19 3 -3 -7 -14 -6 -20 -13
-13 -16 10 -3 10 -7 0 -18 -10 -11 -15 -10 -29 2 -10 9 -18 22 -18 28 0 7 -7
18 -15 25 -18 15 -9 34 12 26 8 -3 20 -6 25 -6z m-1028 -93 c-3 -17 -9 -45
-13 -62 -4 -16 -6 -39 -4 -50 2 -11 4 -49 5 -85 0 -72 -15 -125 -34 -114 -7 4
-8 3 -4 -5 9 -14 -5 -27 -70 -68 -79 -51 -92 -49 -114 19 -15 50 -16 61 -4 84
8 14 14 35 14 45 0 11 9 28 20 39 12 12 35 50 52 85 16 35 38 67 47 70 9 3 34
23 56 45 21 21 42 37 46 35 4 -3 5 -20 3 -38z m-927 8 c2 -5 -15 -11 -37 -13
-38 -2 -54 10 -27 22 19 8 60 2 64 -9z m1897 -10 c4 -11 -2 -15 -22 -15 -26 1
-26 1 -8 15 24 18 23 18 30 0z m-1667 -42 c7 -19 -48 -61 -86 -67 -42 -6 -133
-5 -143 1 -4 2 -2 10 5 18 8 9 16 10 24 3 17 -13 37 0 24 16 -14 16 -1 33 29
37 56 8 143 4 147 -8z m1671 -50 c-15 -19 -28 -16 -28 5 0 26 10 33 25 19 9
-8 10 -16 3 -24z m72 33 c0 -3 -4 -8 -10 -11 -5 -3 -10 -1 -10 4 0 6 5 11 10
11 6 0 10 -2 10 -4z m50 -9 c0 -14 -35 -39 -44 -30 -6 7 24 41 37 42 4 1 7 -5
7 -12z m270 3 c0 -5 -5 -10 -11 -10 -5 0 -7 5 -4 10 3 6 8 10 11 10 2 0 4 -4
4 -10z m-2546 -15 c3 -8 1 -15 -4 -15 -6 0 -10 7 -10 15 0 8 2 15 4 15 2 0 6
-7 10 -15z m2037 -15 c10 0 19 -4 19 -10 0 -13 -29 -8 -55 9 -17 11 -17 12 -2
7 10 -3 27 -6 38 -6z m-1083 -36 c-12 -20 -27 -38 -35 -41 -8 -3 -25 -22 -38
-42 -14 -19 -25 -29 -25 -21 -1 8 -7 0 -15 -19 -11 -23 -20 -31 -30 -27 -10 3
-13 2 -10 -5 8 -12 -24 -51 -35 -44 -4 2 -12 -7 -19 -21 -9 -20 -15 -23 -25
-15 -7 6 -16 8 -19 4 -18 -17 -4 7 18 33 14 16 25 25 25 19 0 -5 11 13 24 40
39 81 138 170 193 174 8 1 5 -12 -9 -35z m1235 9 c-4 -11 -3 -14 5 -9 7 4 12
3 12 -3 0 -14 -40 -25 -51 -14 -11 11 18 56 31 48 5 -3 6 -13 3 -22z m74 5
c-3 -8 -6 -5 -6 6 -1 11 2 17 5 13 3 -3 4 -12 1 -19z m-1017 -8 c2 34 120
-135 120 -172 -1 -32 -36 -108 -51 -108 -7 0 -9 -3 -6 -6 9 -9 -11 -44 -25
-44 -9 0 -9 3 -1 11 8 8 8 20 3 34 -5 13 -7 25 -6 26 2 2 6 18 9 34 5 26 4 25
-13 -10 -10 -22 -15 -41 -11 -43 16 -5 -1 -41 -27 -58 -23 -15 -25 -15 -19 0
4 10 1 16 -9 16 -20 0 -30 -30 -14 -40 9 -6 7 -11 -8 -19 -23 -12 -35 -2 -22
19 4 7 6 19 3 27 -3 8 2 22 12 33 9 10 14 24 10 30 -4 7 2 9 19 6 27 -5 42 7
30 25 -4 8 -9 7 -15 -2 -8 -12 -11 -11 -19 1 -7 11 -5 16 7 19 12 2 13 5 3 11
-21 13 -1 31 27 24 22 -6 24 -5 16 11 -8 13 -5 27 9 52 l20 33 -26 -9 c-31
-13 -36 -5 -37 56 -1 63 1 72 11 48 6 -14 9 -15 10 -5z m584 -52 c-4 -5 -1
-14 5 -18 7 -4 15 -31 18 -61 3 -35 1 -51 -5 -44 -13 14 -44 124 -37 134 2 5
-2 14 -10 21 -12 10 -13 16 -3 28 11 12 14 10 26 -17 7 -18 10 -37 6 -43z
m194 8 c2 -11 -2 -14 -12 -10 -9 3 -16 1 -16 -5 0 -18 -46 -12 -71 9 -19 16
-21 21 -10 29 7 5 11 13 7 19 -3 6 17 2 46 -8 29 -10 54 -25 56 -34z m-1238
24 c0 -28 -36 -85 -43 -68 -3 7 -6 4 -6 -8 -2 -39 -53 -95 -105 -115 -48 -18
-66 -17 -66 2 0 6 3 8 8 6 4 -3 7 14 6 36 -1 56 4 68 53 121 40 44 44 46 97
46 49 0 56 -2 56 -20z m1444 -4 c-3 -9 -10 -16 -15 -16 -6 0 -5 9 1 21 13 24
24 20 14 -5z m-1941 -3 c4 -3 -3 -17 -15 -30 -20 -22 -21 -24 -4 -42 10 -11
15 -25 11 -30 -9 -16 4 -13 21 4 24 23 35 18 28 -12 -4 -16 -9 -30 -11 -32 -6
-7 -55 33 -67 55 -6 10 -15 22 -20 25 -10 8 2 51 18 61 14 10 31 10 39 1z
m117 -13 c0 -9 -56 -30 -79 -30 -12 1 -9 7 11 24 25 23 68 26 68 6z m180 5 c0
-3 -20 -25 -44 -50 -42 -43 -69 -55 -80 -36 -9 14 43 71 65 71 10 0 19 5 19
10 0 6 9 10 20 10 11 0 20 -2 20 -5z m-164 -70 c-3 -9 -11 -13 -16 -10 -8 5
-7 11 1 21 14 18 24 11 15 -11z m1499 -7 c3 -7 -2 -31 -10 -53 -9 -26 -15 -33
-16 -20 -4 48 -4 71 -1 78 5 11 22 8 27 -5z m-110 -18 c3 -5 1 -10 -4 -10 -6
0 -11 5 -11 10 0 6 2 10 4 10 3 0 8 -4 11 -10z m189 -5 c-4 -8 -8 -15 -10 -15
-2 0 -4 7 -4 15 0 8 4 15 10 15 5 0 7 -7 4 -15z m-39 -36 c0 -8 -9 -15 -21
-17 -13 -2 -21 3 -21 12 0 8 4 13 9 10 4 -3 8 0 8 6 0 7 6 10 13 8 6 -3 12
-11 12 -19z m-1665 -18 c0 -16 -13 -19 -36 -9 -16 7 -20 14 -13 19 13 8 49 0
49 -10z m160 15 c0 -2 -9 -6 -20 -9 -11 -3 -18 -1 -14 4 5 9 34 13 34 5z m412
-38 c-8 -8 -9 -4 -5 13 4 13 8 18 11 10 2 -7 -1 -18 -6 -23z m-867 12 c3 -6
-1 -7 -9 -4 -18 7 -21 14 -7 14 6 0 13 -4 16 -10z m1695 -6 c0 -8 -4 -12 -10
-9 -5 3 -10 10 -10 16 0 5 5 9 10 9 6 0 10 -7 10 -16z m-1170 -7 c0 -8 -7 -14
-15 -14 -25 0 -17 17 13 26 1 1 2 -5 2 -12z m1200 -3 c0 -8 -4 -12 -10 -9 -5
3 -10 10 -10 16 0 5 5 9 10 9 6 0 10 -7 10 -16z m-886 -28 c-3 -20 0 -37 6
-41 12 -8 3 -46 -14 -57 -18 -12 -26 -9 -20 7 7 18 -22 21 -30 3 -3 -7 -4 -4
-1 7 2 11 6 33 9 48 4 22 38 65 53 67 2 0 0 -15 -3 -34z m-369 -6 c3 -5 2 -10
-4 -10 -5 0 -13 5 -16 10 -3 6 -2 10 4 10 5 0 13 -4 16 -10z m238 -12 c20 5
21 4 8 -12 -8 -9 -20 -15 -27 -12 -8 3 -11 0 -7 -10 7 -19 -11 -18 -27 1 -11
13 -10 19 6 34 13 12 20 14 22 6 2 -8 12 -11 25 -7z m794 -6 c20 -15 21 -21
12 -67 -6 -33 -6 -51 1 -53 6 -2 0 -12 -12 -22 -23 -18 -43 -16 -66 7 -10 10
-9 15 8 25 24 15 26 28 5 28 -9 0 -18 7 -21 15 -4 8 -14 15 -23 15 -14 1 -14
2 3 15 10 8 15 19 11 25 -18 30 48 39 82 12z m117 2 c10 -26 7 -32 -14 -27
-21 6 -28 23 -9 23 5 0 7 5 4 10 -3 6 -2 10 3 10 6 0 13 -7 16 -16z m-1020 -9
c-4 -8 -10 -12 -15 -9 -11 6 -2 24 11 24 5 0 7 -7 4 -15z m313 -13 c9 -47 7
-56 -10 -60 -16 -3 -18 2 -16 35 4 56 18 70 26 25z m474 -5 c-8 -8 -11 -7 -11
4 0 20 13 34 18 19 3 -7 -1 -17 -7 -23z m384 5 c-3 -3 -11 0 -18 7 -9 10 -8
11 6 5 10 -3 15 -9 12 -12z m-1205 4 c0 -3 -4 -8 -10 -11 -5 -3 -10 -1 -10 4
0 6 5 11 10 11 6 0 10 -2 10 -4z m1270 -21 c0 -15 -36 -9 -47 8 -3 6 -1 7 5 3
7 -4 12 -3 12 3 0 6 7 8 15 5 8 -4 15 -12 15 -19z m171 -28 c-9 -9 -11 -8 -6
4 4 10 2 20 -4 24 -6 3 -11 11 -11 18 0 6 7 1 16 -12 13 -17 14 -25 5 -34z
m-1351 22 c0 -5 -6 -9 -13 -9 -8 0 -14 6 -14 14 0 8 6 12 14 9 7 -3 13 -9 13
-14z m-177 -18 c3 -14 -1 -18 -20 -18 -23 0 -23 0 -6 18 10 10 19 18 19 18 1
1 4 -7 7 -18z m267 -7 c0 -14 -4 -23 -10 -19 -5 3 -10 15 -10 26 0 10 5 19 10
19 6 0 10 -12 10 -26z m325 18 c-5 -4 -11 -18 -13 -32 -1 -14 -16 -38 -32 -53
-39 -37 -39 -19 0 21 35 37 40 58 10 40 -11 -7 -20 -16 -20 -20 0 -5 -7 -8
-16 -8 -9 0 -12 -5 -8 -12 5 -10 4 -10 -6 -2 -19 19 -3 50 33 62 39 12 66 15
52 4z m65 4 c0 -2 -7 -9 -15 -16 -13 -11 -14 -10 -9 4 5 14 24 23 24 12z m455
-37 c37 -35 70 -89 45 -74 -17 11 -38 -7 -33 -28 4 -21 4 -21 -8 -2 -14 23
-29 35 -44 35 -5 0 -3 -5 5 -10 8 -5 10 -10 4 -10 -6 0 -17 7 -24 15 -10 12
-10 18 1 32 10 11 10 14 2 9 -8 -4 -13 -2 -13 8 0 8 6 17 13 20 10 5 10 7 0
12 -16 7 -17 34 -2 34 6 0 30 -19 54 -41z m-1045 16 c0 -8 -4 -15 -10 -15 -5
0 -10 7 -10 15 0 8 5 15 10 15 6 0 10 -7 10 -15z m164 -10 c-4 -8 -10 -15 -15
-15 -5 0 -9 -5 -9 -11 0 -6 9 -8 23 -4 18 6 20 5 10 -6 -9 -8 -19 -9 -33 -3
-19 8 -19 11 -5 32 18 25 37 30 29 7z m1006 -34 c0 -13 -2 -13 -9 -2 -5 7 -14
10 -20 7 -7 -5 -11 3 -11 20 0 26 0 27 20 9 11 -10 20 -25 20 -34z m-1205 29
c3 -5 1 -10 -4 -10 -6 0 -11 5 -11 10 0 6 2 10 4 10 3 0 8 -4 11 -10z m605
-44 c-4 -19 -5 -37 -2 -40 3 -4 0 -6 -7 -6 -9 0 -11 11 -7 38 3 20 5 41 6 45
0 5 4 6 9 3 5 -3 5 -21 1 -40z m990 -23 c0 -7 -4 -13 -10 -13 -5 0 -10 5 -10
11 0 5 -4 8 -8 5 -4 -2 -8 4 -9 14 -2 17 1 18 18 7 10 -6 19 -17 19 -24z
m-1562 -8 c2 -19 -1 -35 -6 -35 -6 0 -9 56 -3 68 4 8 7 -2 9 -33z m1218 8
c-10 -10 -19 5 -10 18 6 11 8 11 12 0 2 -7 1 -15 -2 -18z m-1425 -20 c-10 -17
-10 -16 -11 3 0 23 13 41 18 25 2 -6 -1 -18 -7 -28z m1679 6 c0 -5 -6 -9 -13
-9 -8 0 -14 6 -14 14 0 8 6 12 14 9 7 -3 13 -9 13 -14z m-1668 -21 c8 8 15 7
25 -3 7 -8 20 -12 28 -9 8 4 15 1 15 -5 0 -6 -3 -10 -7 -10 -20 3 -24 -2 -14
-15 15 -17 1 -28 -19 -15 -11 6 -12 9 -2 9 7 0 10 5 7 10 -5 8 -11 7 -21 -1
-12 -10 -13 -8 -8 7 6 14 2 13 -14 -6 l-22 -25 -21 25 c-19 23 -20 25 -3 37
13 10 21 10 31 1 10 -8 17 -8 25 0z m708 -17 c0 -5 -7 -11 -14 -14 -10 -4 -13
-1 -9 9 6 15 23 19 23 5z m136 -6 c-26 -19 -42 -19 -26 0 7 8 20 15 29 15 13
-1 13 -3 -3 -15z m-590 -42 c-7 -7 -26 7 -26 19 0 6 6 6 15 -2 9 -7 13 -15 11
-17z m546 -5 c-15 -15 -24 -6 -16 16 5 12 10 14 17 7 8 -8 8 -14 -1 -23z
m-559 -10 c15 3 16 0 7 -23 -13 -34 -13 -38 2 -29 7 4 8 3 4 -4 -11 -18 -36
-14 -36 4 0 10 -6 14 -15 10 -8 -3 -15 -1 -15 4 0 6 4 10 10 10 5 0 7 14 4 33
-5 29 -4 30 8 12 7 -12 21 -19 31 -17z m-251 0 c-7 -7 -12 -8 -12 -2 0 14 12
26 19 19 2 -3 -1 -11 -7 -17z m323 3 c3 -5 1 -12 -5 -16 -5 -3 -10 1 -10 9 0
18 6 21 15 7z m435 5 c0 -3 -4 -8 -10 -11 -5 -3 -10 -1 -10 4 0 6 5 11 10 11
6 0 10 -2 10 -4z m-410 -26 c0 -5 -4 -10 -10 -10 -5 0 -10 5 -10 10 0 6 5 10
10 10 6 0 10 -4 10 -10z m-23 -37 c-8 -7 -37 9 -31 19 3 5 12 4 20 -3 8 -6 13
-14 11 -16z m1183 -74 c0 -4 -7 -6 -15 -3 -8 4 -15 10 -15 15 0 4 7 6 15 3 8
-4 15 -10 15 -15z m-285 -39 c3 -5 1 -10 -4 -10 -6 0 -11 5 -11 10 0 6 2 10 4
10 3 0 8 -4 11 -10z m-603 -62 c-7 -7 -12 -8 -12 -2 0 14 12 26 19 19 2 -3 -1
-11 -7 -17z m73 4 c5 0 11 -5 13 -11 2 -6 -2 -11 -10 -11 -15 1 -48 24 -48 34
0 4 8 2 18 -3 9 -5 21 -9 27 -9z"/>
<path d="M1513 2502 c-7 -4 -9 -13 -4 -21 6 -9 10 -7 14 8 3 12 4 21 4 21 -1
0 -7 -4 -14 -8z"/>
<path d="M1592 2234 c1 -9 9 -19 16 -22 9 -3 13 2 10 14 -1 9 -9 19 -16 22 -9
3 -13 -2 -10 -14z"/>
<path d="M1890 2340 c0 -5 5 -10 11 -10 5 0 7 5 4 10 -3 6 -8 10 -11 10 -2 0
-4 -4 -4 -10z"/>
<path d="M1867 2306 c-3 -8 -3 -17 0 -20 9 -9 34 15 27 25 -8 13 -21 11 -27
-5z"/>
<path d="M1195 2300 c-3 -5 -1 -10 4 -10 6 0 11 5 11 10 0 6 -2 10 -4 10 -3 0
-8 -4 -11 -10z"/>
<path d="M1288 2232 c-18 -3 -26 -32 -9 -32 10 0 36 29 30 33 -2 2 -12 2 -21
-1z"/>
<path d="M1840 2100 c0 -5 5 -10 10 -10 6 0 10 5 10 10 0 6 -4 10 -10 10 -5 0
-10 -4 -10 -10z"/>
<path d="M2045 2100 c-4 -6 -10 -8 -15 -5 -5 3 -11 2 -14 -3 -2 -4 6 -9 20
-10 15 -1 24 3 24 13 0 17 -6 19 -15 5z"/>
<path d="M1732 2018 c3 -7 13 -15 22 -16 12 -3 17 1 14 10 -3 7 -13 15 -22 16
-12 3 -17 -1 -14 -10z"/>
<path d="M2005 2020 c-3 -5 1 -10 9 -10 8 0 18 5 21 10 3 6 -1 10 -9 10 -8 0
-18 -4 -21 -10z"/>
<path d="M1855 1880 c-3 -5 1 -10 9 -10 8 0 18 5 21 10 3 6 -1 10 -9 10 -8 0
-18 -4 -21 -10z"/>
<path d="M1720 1845 c-10 -12 -10 -15 3 -15 19 0 31 16 18 24 -5 3 -14 -1 -21
-9z"/>
<path d="M1110 2095 c0 -8 7 -15 15 -15 9 0 12 6 9 15 -4 8 -10 15 -15 15 -5
0 -9 -7 -9 -15z"/>
<path d="M950 2080 c0 -5 5 -10 10 -10 6 0 10 5 10 10 0 6 -4 10 -10 10 -5 0
-10 -4 -10 -10z"/>
<path d="M1180 2059 c0 -5 5 -7 10 -4 6 3 10 8 10 11 0 2 -4 4 -10 4 -5 0 -10
-5 -10 -11z"/>
<path d="M935 2050 c3 -5 8 -10 11 -10 2 0 4 5 4 10 0 6 -5 10 -11 10 -5 0 -7
-4 -4 -10z"/>
<path d="M1244 1994 c3 -9 6 -18 6 -21 0 -3 7 0 15 7 17 14 11 30 -12 30 -10
0 -13 -6 -9 -16z"/>
<path d="M1143 1955 c0 -8 4 -15 9 -15 4 0 8 7 8 15 0 8 -4 15 -8 15 -5 0 -9
-7 -9 -15z"/>
<path d="M2400 2059 c0 -5 5 -7 10 -4 6 3 10 8 10 11 0 2 -4 4 -10 4 -5 0 -10
-5 -10 -11z"/>
<path d="M940 1876 c0 -8 4 -17 9 -20 11 -7 33 18 24 27 -12 12 -33 7 -33 -7z"/>
<path d="M859 1832 c0 -4 -2 -15 -4 -24 -2 -9 3 -22 10 -28 10 -9 16 -7 24 8
8 14 5 22 -10 35 -10 9 -19 13 -20 9z"/>
<path d="M2510 1845 c-7 -8 -8 -15 -2 -15 5 0 15 7 22 15 7 8 8 15 2 15 -5 0
-15 -7 -22 -15z"/>
<path d="M1010 1673 c0 -12 14 -28 26 -30 7 -1 10 6 7 17 -5 19 -33 29 -33 13z"/>
<path d="M1275 1631 c-4 -7 0 -8 11 -4 13 5 15 3 9 -7 -5 -8 -3 -11 4 -9 7 3
12 9 12 14 0 14 -28 18 -36 6z"/>
<path d="M2382 1699 c2 -7 10 -15 17 -17 8 -3 12 1 9 9 -2 7 -10 15 -17 17 -8
3 -12 -1 -9 -9z"/>
<path d="M2410 1536 c0 -2 7 -6 15 -10 8 -3 15 -1 15 4 0 6 -7 10 -15 10 -8 0
-15 -2 -15 -4z"/>
<path d="M2330 1520 c0 -5 5 -10 10 -10 6 0 10 5 10 10 0 6 -4 10 -10 10 -5 0
-10 -4 -10 -10z"/>
<path d="M1230 1291 c0 -14 18 -23 31 -15 8 4 7 9 -2 15 -18 11 -29 11 -29 0z"/>
<path d="M1380 1210 c0 -13 28 -25 38 -16 3 4 0 11 -8 16 -20 13 -30 12 -30 0z"/>
<path d="M1225 1170 c-3 -5 -1 -10 4 -10 6 0 11 5 11 10 0 6 -2 10 -4 10 -3 0
-8 -4 -11 -10z"/>
<path d="M955 1369 c-4 -6 -5 -12 -2 -15 2 -3 7 2 10 11 7 17 1 20 -8 4z"/>
<path d="M1860 1281 c-24 -21 -37 -26 -42 -18 -5 7 -8 0 -8 -17 l0 -29 48 43
c26 24 49 45 51 47 2 2 0 3 -5 3 -5 0 -25 -14 -44 -29z"/>
<path d="M1726 1171 c-4 -7 -5 -15 -2 -18 9 -9 19 4 14 18 -4 11 -6 11 -12 0z"/>
<path d="M1967 1134 c-3 -3 -3 -12 0 -20 4 -11 9 -12 19 -3 8 6 11 15 8 20 -6
10 -18 12 -27 3z"/>
<path d="M1930 1120 c0 -5 5 -10 10 -10 6 0 10 5 10 10 0 6 -4 10 -10 10 -5 0
-10 -4 -10 -10z"/>
<path d="M1980 1050 c0 -5 5 -10 11 -10 5 0 7 5 4 10 -3 6 -8 10 -11 10 -2 0
-4 -4 -4 -10z"/>
<path d="M1975 931 c3 -5 1 -12 -5 -16 -5 -3 -10 -14 -10 -23 1 -14 4 -13 20
7 19 23 19 41 -1 41 -6 0 -8 -4 -4 -9z"/>
<path d="M2024 879 c-19 -22 -19 -22 4 -10 12 6 22 16 22 21 0 15 -5 12 -26
-11z"/>
<path d="M2294 1276 c-19 -15 -19 -15 0 -12 11 2 22 8 24 14 5 16 0 15 -24 -2z"/>
<path d="M2250 1260 c0 -5 5 -10 11 -10 5 0 7 5 4 10 -3 6 -8 10 -11 10 -2 0
-4 -4 -4 -10z"/>
<path d="M2310 1216 c0 -9 7 -16 16 -16 9 0 14 5 12 12 -6 18 -28 21 -28 4z"/>
<path d="M2160 1004 c0 -8 5 -12 10 -9 6 4 8 11 5 16 -9 14 -15 11 -15 -7z"/>
<path d="M1545 1020 c-12 -14 -15 -24 -9 -30 14 -14 46 21 35 38 -6 9 -12 7
-26 -8z"/>
<path d="M1497 1004 c-8 -8 3 -34 14 -34 5 0 9 9 9 20 0 19 -11 26 -23 14z"/>
<path d="M1557 883 c-4 -3 -7 -11 -7 -17 0 -6 5 -5 12 2 6 6 9 14 7 17 -3 3
-9 2 -12 -2z"/>
<path d="M1447 836 c-4 -10 -7 -19 -7 -20 0 -1 14 -1 30 2 17 2 30 9 30 14 0
6 -9 8 -20 5 -10 -3 -21 0 -23 6 -2 6 -6 3 -10 -7z"/>
<path d="M1470 800 c0 -5 5 -10 10 -10 6 0 10 5 10 10 0 6 -4 10 -10 10 -5 0
-10 -4 -10 -10z"/>
<path d="M1739 833 c-6 -34 -5 -54 2 -59 5 -3 9 4 9 15 0 10 3 26 6 35 3 9 1
16 -5 16 -6 0 -12 -3 -12 -7z"/>
<path d="M2350 1000 c0 -5 4 -10 9 -10 6 0 13 5 16 10 3 6 -1 10 -9 10 -9 0
-16 -4 -16 -10z"/>
<path d="M1079 963 c-13 -16 -12 -17 4 -4 9 7 17 15 17 17 0 8 -8 3 -21 -13z"/>
<path d="M1865 760 c-3 -5 -1 -10 4 -10 6 0 11 5 11 10 0 6 -2 10 -4 10 -3 0
-8 -4 -11 -10z"/>
<path d="M1871 726 c-17 -20 13 -43 34 -26 22 18 18 32 -6 25 -15 -5 -19 -4
-15 4 10 16 1 14 -13 -3z"/>
<path d="M1980 661 c0 -5 5 -13 10 -16 6 -3 10 -2 10 4 0 5 -4 13 -10 16 -5 3
-10 2 -10 -4z"/>
<path d="M2347 3027 c-13 -9 -18 -23 -15 -42 l3 -30 28 29 c26 28 37 53 18 42
-5 -4 -11 -1 -13 4 -2 7 -10 6 -21 -3z"/>
<path d="M1319 3014 c-1 -5 -1 -12 0 -17 1 -4 -10 -5 -24 -1 -27 7 -33 -4 -13
-24 17 -17 38 -15 38 4 0 11 5 14 16 10 15 -6 15 -4 3 11 -7 10 -15 20 -16 22
-2 2 -4 0 -4 -5z"/>
<path d="M1815 3010 c3 -5 8 -10 11 -10 2 0 4 5 4 10 0 6 -5 10 -11 10 -5 0
-7 -4 -4 -10z"/>
<path d="M1980 2996 c0 -2 7 -9 15 -16 9 -7 15 -8 15 -2 0 5 -7 12 -15 16 -8
3 -15 4 -15 2z"/>
<path d="M2946 2985 c4 -8 8 -15 10 -15 2 0 4 7 4 15 0 8 -4 15 -10 15 -5 0
-7 -7 -4 -15z"/>
<path d="M825 2970 c4 -6 11 -8 16 -5 14 9 11 15 -7 15 -8 0 -12 -5 -9 -10z"/>
<path d="M697 2964 c-11 -11 3 -24 18 -18 8 4 12 10 9 15 -6 11 -18 12 -27 3z"/>
<path d="M1030 2945 c0 -16 6 -25 15 -25 8 0 15 5 15 10 0 6 -5 10 -11 10 -6
0 -9 7 -5 15 3 8 1 15 -4 15 -6 0 -10 -11 -10 -25z"/>
<path d="M1005 2950 c3 -5 8 -10 11 -10 2 0 4 5 4 10 0 6 -5 10 -11 10 -5 0
-7 -4 -4 -10z"/>
<path d="M1640 2950 c0 -5 5 -10 11 -10 5 0 7 5 4 10 -3 6 -8 10 -11 10 -2 0
-4 -4 -4 -10z"/>
<path d="M1985 2950 c-3 -5 -1 -10 4 -10 6 0 11 5 11 10 0 6 -2 10 -4 10 -3 0
-8 -4 -11 -10z"/>
<path d="M2094 2951 c4 -5 1 -12 -4 -14 -6 -3 -5 -4 2 -3 15 3 23 26 8 26 -6
0 -9 -4 -6 -9z"/>
<path d="M2920 2935 l-23 -25 26 13 c15 6 27 18 27 25 0 17 -3 16 -30 -13z"/>
<path d="M861 2927 c-1 -22 3 -28 16 -25 9 2 18 9 21 16 2 7 -2 10 -11 6 -10
-3 -17 1 -20 13 -3 12 -5 8 -6 -10z"/>
<path d="M1076 2935 c4 -8 8 -15 10 -15 2 0 4 7 4 15 0 8 -4 15 -10 15 -5 0
-7 -7 -4 -15z"/>
<path d="M2045 2940 c3 -5 10 -10 16 -10 5 0 9 5 9 10 0 6 -7 10 -16 10 -8 0
-12 -4 -9 -10z"/>
<path d="M2250 2940 c0 -5 5 -10 11 -10 5 0 7 5 4 10 -3 6 -8 10 -11 10 -2 0
-4 -4 -4 -10z"/>
<path d="M2325 2940 c-3 -6 1 -7 9 -4 18 7 21 14 7 14 -6 0 -13 -4 -16 -10z"/>
<path d="M2425 2940 c-19 -8 -19 -9 3 -9 12 -1 22 4 22 9 0 6 -1 10 -2 9 -2 0
-12 -4 -23 -9z"/>
<path d="M650 2929 c0 -5 5 -7 10 -4 6 3 10 8 10 11 0 2 -4 4 -10 4 -5 0 -10
-5 -10 -11z"/>
<path d="M790 2930 c0 -5 5 -10 11 -10 5 0 7 5 4 10 -3 6 -8 10 -11 10 -2 0
-4 -4 -4 -10z"/>
<path d="M2824 2922 c-18 -12 -25 -44 -13 -58 22 -26 68 -12 73 22 6 35 -30
57 -60 36z"/>
<path d="M450 2910 c0 -5 5 -10 10 -10 6 0 10 5 10 10 0 6 -4 10 -10 10 -5 0
-10 -4 -10 -10z"/>
<path d="M2470 2905 c0 -16 16 -20 24 -6 3 5 -1 11 -9 15 -9 3 -15 0 -15 -9z"/>
<path d="M560 2906 c0 -2 7 -9 15 -16 13 -11 14 -10 9 4 -5 14 -24 23 -24 12z"/>
<path d="M2365 2901 c-3 -5 -2 -12 3 -15 5 -3 9 1 9 9 0 17 -3 19 -12 6z"/>
<path d="M2620 2900 c0 -5 7 -10 16 -10 8 0 12 5 9 10 -3 6 -10 10 -16 10 -5
0 -9 -4 -9 -10z"/>
<path d="M889 2898 c-6 -25 -7 -68 -1 -68 12 0 33 50 27 61 -6 8 -24 13 -26 7z"/>
<path d="M356 2874 c-8 -21 1 -34 24 -34 22 0 33 23 17 39 -16 16 -34 14 -41
-5z"/>
<path d="M967 2883 c-4 -7 -3 -14 3 -18 6 -4 8 -10 5 -15 -3 -5 -1 -11 5 -15
5 -3 10 -2 10 4 0 5 3 17 7 27 4 11 3 15 -4 11 -6 -4 -13 -2 -15 5 -3 9 -6 9
-11 1z"/>
<path d="M2670 2880 c0 -5 5 -10 10 -10 6 0 10 5 10 10 0 6 -4 10 -10 10 -5 0
-10 -4 -10 -10z"/>
<path d="M2262 2871 c-11 -7 -10 -10 3 -15 22 -8 22 -8 29 9 6 16 -11 20 -32
6z"/>
<path d="M425 2860 c3 -5 8 -10 11 -10 2 0 4 5 4 10 0 6 -5 10 -11 10 -5 0 -7
-4 -4 -10z"/>
<path d="M2726 2853 c-6 -14 -5 -15 5 -6 7 7 10 15 7 18 -3 3 -9 -2 -12 -12z"/>
<path d="M2523 2825 c-6 -19 -8 -35 -3 -35 8 0 23 60 17 67 -2 1 -8 -13 -14
-32z"/>
<path d="M756 2815 c4 -8 7 -15 9 -15 2 0 5 7 9 15 3 9 0 15 -9 15 -9 0 -12
-6 -9 -15z"/>
<path d="M2906 2811 c-9 -14 4 -41 19 -41 15 0 28 27 19 41 -3 5 -11 9 -19 9
-8 0 -16 -4 -19 -9z"/>
<path d="M801 2801 c-8 -6 -9 -11 -3 -15 6 -3 14 -1 17 5 9 14 2 20 -14 10z"/>
<path d="M619 2793 c-3 -19 4 -49 13 -60 16 -20 28 -15 28 10 0 13 6 29 13 36
10 11 8 11 -10 2 -26 -13 -36 -14 -28 -2 3 5 1 12 -5 16 -5 3 -11 3 -11 -2z"/>
<path d="M2565 2791 c-3 -5 -1 -12 5 -16 5 -3 10 1 10 9 0 18 -6 21 -15 7z"/>
<path d="M2637 2793 c-4 -3 -7 -15 -7 -25 0 -10 -4 -18 -10 -18 -5 0 -10 -4
-10 -10 0 -25 26 -7 36 25 10 33 6 44 -9 28z"/>
<path d="M2590 2776 c0 -9 5 -16 10 -16 6 0 10 4 10 9 0 6 -4 13 -10 16 -5 3
-10 -1 -10 -9z"/>
<path d="M710 2758 c20 -20 29 -23 42 -14 21 12 32 36 17 36 -5 0 -12 -7 -15
-15 -4 -8 -10 -15 -16 -15 -5 0 -6 5 -3 10 3 6 2 10 -4 10 -5 0 -18 3 -28 6
-14 5 -12 1 7 -18z"/>
<path d="M2975 2770 c-3 -5 -4 -14 -1 -19 3 -5 -4 -11 -15 -14 -12 -3 -18 -10
-14 -16 10 -16 35 -13 35 4 0 9 7 18 15 21 8 4 15 12 15 20 0 16 -26 19 -35 4z"/>
<path d="M590 2754 c0 -8 5 -12 10 -9 6 4 8 11 5 16 -9 14 -15 11 -15 -7z"/>
<path d="M800 2750 c0 -5 5 -10 11 -10 5 0 7 5 4 10 -3 6 -8 10 -11 10 -2 0
-4 -4 -4 -10z"/>
<path d="M2765 2740 c-10 -17 12 -37 25 -24 8 8 6 15 -4 23 -10 9 -16 9 -21 1z"/>
<path d="M2850 2735 c-10 -12 -9 -16 5 -21 23 -9 40 10 22 25 -11 9 -17 8 -27
-4z"/>
<path d="M520 2717 c0 -29 7 -37 26 -30 20 8 17 31 -6 43 -17 9 -20 8 -20 -13z"/>
<path d="M2558 2718 c-31 -11 -36 -23 -13 -32 8 -3 15 -1 15 5 0 5 10 13 22
18 31 11 8 20 -24 9z"/>
<path d="M2498 2712 c-19 -4 -24 -17 -9 -26 5 -3 14 1 21 9 15 18 12 23 -12
17z"/>
<path d="M600 2680 c0 -5 7 -10 16 -10 8 0 12 5 9 10 -3 6 -10 10 -16 10 -5 0
-9 -4 -9 -10z"/>
<path d="M3016 2681 c-4 -7 -5 -15 -2 -18 9 -9 19 4 14 18 -4 11 -6 11 -12 0z"/>
<path d="M3125 2681 c-3 -5 -1 -12 5 -16 5 -3 10 1 10 9 0 18 -6 21 -15 7z"/>
<path d="M2530 2671 c0 -5 5 -13 10 -16 6 -3 10 -2 10 4 0 5 -4 13 -10 16 -5
3 -10 2 -10 -4z"/>
<path d="M2915 2670 c-3 -5 -2 -10 4 -10 5 0 13 5 16 10 3 6 2 10 -4 10 -5 0
-13 -4 -16 -10z"/>
<path d="M2682 2650 c-8 -13 -8 -21 -1 -26 16 -10 32 12 22 30 -7 14 -10 13
-21 -4z"/>
<path d="M628 2653 c7 -3 16 -2 19 1 4 3 -2 6 -13 5 -11 0 -14 -3 -6 -6z"/>
<path d="M2605 2651 c-3 -5 -1 -12 5 -16 5 -3 10 1 10 9 0 18 -6 21 -15 7z"/>
<path d="M3087 2645 c-4 -8 -2 -17 3 -20 6 -4 10 3 10 14 0 25 -6 27 -13 6z"/>
<path d="M690 2634 c0 -8 5 -12 10 -9 6 3 10 10 10 16 0 5 -4 9 -10 9 -5 0
-10 -7 -10 -16z"/>
<path d="M2755 2620 c-3 -5 1 -10 10 -10 9 0 13 5 10 10 -3 6 -8 10 -10 10 -2
0 -7 -4 -10 -10z"/>
<path d="M608 2613 c-10 -2 -18 -8 -18 -12 0 -11 49 -1 56 10 5 9 -8 10 -38 2z"/>
<path d="M390 2600 c0 -5 9 -10 21 -10 11 0 17 5 14 10 -3 6 -13 10 -21 10 -8
0 -14 -4 -14 -10z"/>
<path d="M2725 2600 c-3 -5 -1 -10 4 -10 6 0 11 5 11 10 0 6 -2 10 -4 10 -3 0
-8 -4 -11 -10z"/>
<path d="M578 2573 c7 -3 16 -2 19 1 4 3 -2 6 -13 5 -11 0 -14 -3 -6 -6z"/>
<path d="M315 2551 c-3 -5 -1 -12 5 -16 5 -3 10 1 10 9 0 18 -6 21 -15 7z"/>
<path d="M2765 2519 c-4 -6 -5 -13 -2 -16 7 -7 27 6 27 18 0 12 -17 12 -25 -2z"/>
<path d="M2925 2510 c-3 -5 -1 -10 4 -10 6 0 11 5 11 10 0 6 -2 10 -4 10 -3 0
-8 -4 -11 -10z"/>
<path d="M2858 2484 c4 -20 7 -22 19 -13 17 14 13 31 -8 35 -12 1 -15 -5 -11
-22z"/>
<path d="M385 2490 c-3 -6 1 -7 9 -4 18 7 21 14 7 14 -6 0 -13 -4 -16 -10z"/>
<path d="M220 2480 c0 -5 5 -10 11 -10 5 0 7 5 4 10 -3 6 -8 10 -11 10 -2 0
-4 -4 -4 -10z"/>
<path d="M190 2441 c0 -6 5 -13 10 -16 6 -3 10 1 10 9 0 9 -4 16 -10 16 -5 0
-10 -4 -10 -9z"/>
<path d="M400 2420 c0 -5 5 -10 10 -10 6 0 10 5 10 10 0 6 -4 10 -10 10 -5 0
-10 -4 -10 -10z"/>
<path d="M2968 2353 c-22 -27 -17 -40 16 -39 26 1 31 5 31 25 0 28 -28 37 -47
14z"/>
<path d="M2920 2340 c-9 -6 -10 -10 -3 -10 6 0 15 5 18 10 8 12 4 12 -15 0z"/>
<path d="M27 2324 c-8 -8 1 -24 14 -24 5 0 9 7 9 15 0 15 -12 20 -23 9z"/>
<path d="M3055 2310 c3 -5 8 -10 11 -10 2 0 4 5 4 10 0 6 -5 10 -11 10 -5 0
-7 -4 -4 -10z"/>
<path d="M333 2267 c-3 -5 0 -13 6 -17 16 -9 62 0 55 11 -3 5 -10 7 -15 4 -5
-4 -9 -2 -9 3 0 12 -29 11 -37 -1z"/>
<path d="M276 2183 c-6 -14 -9 -15 -15 -4 -6 9 -11 10 -15 2 -7 -10 6 -16 28
-12 11 2 36 -19 36 -31 0 -5 -4 -7 -9 -4 -5 3 -18 -10 -30 -30 -12 -19 -17
-32 -11 -29 5 3 10 -3 10 -14 0 -12 5 -21 10 -21 6 0 9 15 7 34 -3 27 -1 33
11 28 10 -3 13 -1 8 6 -4 7 -1 15 8 18 12 5 11 11 -6 40 -23 39 -24 40 -32 17z"/>
<path d="M2980 2171 c0 -5 -8 -7 -19 -4 -10 3 -22 0 -26 -7 -4 -7 1 -14 14
-17 12 -3 21 -9 21 -14 0 -5 3 -9 8 -9 4 0 8 14 8 30 1 17 0 30 -2 30 -2 0 -4
-4 -4 -9z"/>
<path d="M220 2160 c0 -5 5 -10 11 -10 5 0 7 5 4 10 -3 6 -8 10 -11 10 -2 0
-4 -4 -4 -10z"/>
<path d="M155 2150 c-3 -5 1 -10 9 -10 9 0 16 5 16 10 0 6 -4 10 -9 10 -6 0
-13 -4 -16 -10z"/>
<path d="M240 2131 c0 -7 -5 -9 -10 -6 -17 10 -23 -23 -7 -39 13 -14 15 -12
20 17 2 18 3 34 1 36 -2 2 -4 -1 -4 -8z"/>
<path d="M160 2112 c0 -10 22 -32 32 -32 4 0 8 5 8 10 0 6 -7 10 -16 10 -8 0
-12 5 -9 10 3 6 1 10 -4 10 -6 0 -11 -4 -11 -8z"/>
<path d="M2960 2079 c0 -6 7 -9 15 -5 8 3 15 1 15 -5 0 -6 5 -7 10 -4 18 11
10 25 -15 25 -14 0 -25 -5 -25 -11z"/>
<path d="M150 2030 c0 -5 5 -10 11 -10 5 0 7 5 4 10 -3 6 -8 10 -11 10 -2 0
-4 -4 -4 -10z"/>
<path d="M3200 2026 c0 -2 6 -9 14 -15 10 -9 15 -8 20 4 4 10 -1 15 -14 15
-11 0 -20 -2 -20 -4z"/>
<path d="M2965 1993 c-10 -7 -15 -16 -10 -20 4 -5 10 -2 12 5 3 6 13 12 24 12
10 0 19 4 19 8 0 13 -25 10 -45 -5z"/>
<path d="M3060 2000 c-8 -5 -10 -10 -5 -11 6 0 1 -4 -10 -9 -16 -7 -17 -9 -3
-9 9 -1 22 -9 27 -18 6 -10 11 -13 11 -6 0 7 6 10 13 7 10 -4 12 3 9 26 -4 31
-16 37 -42 20z"/>
<path d="M3023 1909 c8 -32 12 -38 19 -25 5 9 7 20 3 25 -3 5 -1 12 5 16 15 9
2 25 -20 25 -16 0 -17 -4 -7 -41z"/>
<path d="M3165 1934 c-19 -20 -15 -25 25 -30 30 -4 30 -4 14 21 -19 30 -18 29
-39 9z"/>
<path d="M188 1917 c-3 -14 0 -24 7 -24 6 0 12 11 13 24 1 13 -2 23 -7 23 -5
0 -11 -10 -13 -23z"/>
<path d="M2971 1926 c-8 -10 -9 -16 -1 -21 5 -3 13 1 16 10 9 22 -1 29 -15 11z"/>
<path d="M80 1920 c0 -9 39 -25 46 -18 2 3 -7 10 -21 16 -14 6 -25 7 -25 2z"/>
<path d="M3070 1914 c-17 -20 -5 -44 22 -44 25 0 54 35 38 45 -21 13 -49 13
-60 -1z"/>
<path d="M140 1876 c7 -7 13 -7 20 0 6 6 3 10 -10 10 -13 0 -16 -4 -10 -10z"/>
<path d="M3128 1853 c6 -2 18 -2 25 0 6 3 1 5 -13 5 -14 0 -19 -2 -12 -5z"/>
<path d="M3200 1850 c0 -5 5 -10 11 -10 5 0 7 5 4 10 -3 6 -8 10 -11 10 -2 0
-4 -4 -4 -10z"/>
<path d="M3081 1836 c-15 -18 2 -31 25 -18 13 7 13 10 1 20 -11 10 -17 9 -26
-2z"/>
<path d="M2921 1807 c-7 -9 -10 -21 -7 -26 10 -16 42 -8 42 10 0 10 -3 16 -7
13 -4 -2 -9 1 -11 7 -2 7 -8 6 -17 -4z"/>
<path d="M3005 1801 c-10 -9 8 -21 30 -21 17 0 23 4 19 14 -5 13 -39 18 -49 7z"/>
<path d="M3130 1802 c0 -6 5 -14 11 -17 7 -5 4 -15 -6 -32 -10 -14 -12 -22 -6
-19 6 4 18 22 27 39 9 18 13 29 9 25 -5 -4 -14 -3 -22 3 -9 8 -13 8 -13 1z"/>
<path d="M3210 1800 c0 -5 5 -10 10 -10 6 0 10 5 10 10 0 6 -4 10 -10 10 -5 0
-10 -4 -10 -10z"/>
<path d="M3100 1790 c0 -5 5 -10 10 -10 6 0 10 5 10 10 0 6 -4 10 -10 10 -5 0
-10 -4 -10 -10z"/>
<path d="M150 1780 c0 -5 7 -10 16 -10 8 0 12 5 9 10 -3 6 -10 10 -16 10 -5 0
-9 -4 -9 -10z"/>
<path d="M3226 1755 c-3 -8 -1 -15 4 -15 6 0 10 7 10 15 0 8 -2 15 -4 15 -2 0
-6 -7 -10 -15z"/>
<path d="M8 1753 c7 -3 16 -2 19 1 4 3 -2 6 -13 5 -11 0 -14 -3 -6 -6z"/>
<path d="M3210 1714 c0 -8 5 -12 10 -9 6 4 8 11 5 16 -9 14 -15 11 -15 -7z"/>
<path d="M41 1686 c-15 -18 1 -30 29 -21 17 6 18 8 6 21 -18 17 -21 17 -35 0z"/>
<path d="M160 1650 c-12 -8 -10 -10 8 -10 13 0 20 4 17 10 -7 12 -6 12 -25 0z"/>
<path d="M3210 1620 c0 -5 5 -10 10 -10 6 0 10 5 10 10 0 6 -4 10 -10 10 -5 0
-10 -4 -10 -10z"/>
<path d="M45 1610 c-4 -7 -3 -16 3 -22 14 -14 45 -2 40 15 -6 16 -34 21 -43 7z"/>
<path d="M140 1606 c0 -9 5 -16 10 -16 6 0 10 4 10 9 0 6 -4 13 -10 16 -5 3
-10 -1 -10 -9z"/>
<path d="M3126 1545 c-3 -8 -1 -15 4 -15 6 0 10 7 10 15 0 8 -2 15 -4 15 -2 0
-6 -7 -10 -15z"/>
<path d="M139 1530 c-13 -10 -22 -20 -19 -20 37 -8 50 -8 55 0 4 6 12 7 18 3
7 -3 3 3 -7 15 -23 26 -19 26 -47 2z"/>
<path d="M3146 1525 c-3 -9 0 -15 9 -15 16 0 20 16 6 24 -5 3 -11 -1 -15 -9z"/>
<path d="M3078 1503 c-19 -5 -24 -38 -8 -48 6 -3 10 1 10 9 0 8 7 22 16 30 16
16 13 17 -18 9z"/>
<path d="M0 1491 c0 -14 18 -23 31 -15 8 4 7 9 -2 15 -18 11 -29 11 -29 0z"/>
<path d="M140 1486 c0 -9 5 -16 10 -16 6 0 10 4 10 9 0 6 -4 13 -10 16 -5 3
-10 -1 -10 -9z"/>
<path d="M3173 1478 c8 -13 13 -14 19 -5 12 18 10 23 -11 23 -15 0 -17 -3 -8
-18z"/>
<path d="M3103 1478 c-22 -28 -42 -80 -36 -94 4 -12 8 -13 13 -4 4 7 20 13 34
13 16 0 31 7 37 18 7 13 6 19 -1 19 -8 0 -8 6 0 20 8 16 8 20 -2 18 -7 -2 -12
3 -10 10 1 6 -4 12 -12 12 -7 0 -18 -6 -23 -12z"/>
<path d="M174 1465 c-3 -8 -3 -18 0 -23 3 -6 -1 -13 -10 -16 -25 -10 -9 -21
31 -21 35 0 38 3 41 32 3 25 -1 32 -19 37 -32 8 -37 8 -43 -9z"/>
<path d="M3166 1437 c3 -10 9 -15 12 -12 3 3 0 11 -7 18 -10 9 -11 8 -5 -6z"/>
<path d="M19 1397 c-10 -27 -6 -53 12 -70 l22 -21 18 23 c22 27 24 45 7 58
-11 8 -56 16 -59 10z"/>
<path d="M3227 1373 c-11 -10 -8 -43 3 -43 6 0 10 11 10 25 0 26 -2 29 -13 18z"/>
<path d="M3139 1368 c-6 -11 -5 -48 1 -48 4 0 8 11 8 25 0 21 -5 32 -9 23z"/>
<path d="M3193 1325 c0 -8 4 -12 9 -9 4 3 8 9 8 15 0 5 -4 9 -8 9 -5 0 -9 -7
-9 -15z"/>
<path d="M3050 1320 c0 -6 7 -10 15 -10 8 0 15 2 15 4 0 2 -7 6 -15 10 -8 3
-15 1 -15 -4z"/>
<path d="M3105 1260 c-3 -5 -1 -10 4 -10 6 0 11 5 11 10 0 6 -2 10 -4 10 -3 0
-8 -4 -11 -10z"/>
<path d="M225 1200 c3 -5 8 -10 11 -10 2 0 4 5 4 10 0 6 -5 10 -11 10 -5 0 -7
-4 -4 -10z"/>
<path d="M3000 1200 c-12 -7 -12 -10 3 -16 21 -8 29 -3 19 13 -5 8 -13 9 -22
3z"/>
<path d="M175 1120 c3 -5 8 -10 11 -10 2 0 4 5 4 10 0 6 -5 10 -11 10 -5 0 -7
-4 -4 -10z"/>
<path d="M66 1099 c6 -10 76 -30 83 -24 8 9 -8 18 -48 25 -22 4 -38 4 -35 -1z"/>
<path d="M3040 1096 c0 -9 39 -13 51 -5 10 6 4 9 -18 9 -18 0 -33 -2 -33 -4z"/>
<path d="M187 1053 c-14 -13 -6 -22 23 -28 19 -4 28 -11 24 -18 -5 -9 -4 -9 6
0 7 6 20 9 29 6 11 -4 13 -3 6 5 -6 6 -21 13 -35 15 -13 2 -26 9 -28 15 -4 13
-15 15 -25 5z"/>
<path d="M3000 1000 c8 -5 24 -10 35 -10 17 0 17 2 5 10 -8 5 -24 10 -35 10
-17 0 -17 -2 -5 -10z"/>
<path d="M2917 989 c7 -7 15 -10 18 -7 3 3 -2 9 -12 12 -14 6 -15 5 -6 -5z"/>
<path d="M60 980 c0 -5 12 -10 26 -10 14 0 23 4 19 10 -3 6 -15 10 -26 10 -10
0 -19 -4 -19 -10z"/>
<path d="M200 951 c0 -5 7 -11 15 -15 8 -3 15 -1 15 3 0 5 -7 11 -15 15 -8 3
-15 1 -15 -3z"/>
<path d="M337 938 c-10 -8 -14 -18 -9 -26 6 -9 12 -6 20 13 13 29 12 30 -11
13z"/>
<path d="M2875 940 c-3 -5 -1 -10 4 -10 6 0 11 5 11 10 0 6 -2 10 -4 10 -3 0
-8 -4 -11 -10z"/>
<path d="M390 930 c0 -5 5 -10 10 -10 6 0 10 5 10 10 0 6 -4 10 -10 10 -5 0
-10 -4 -10 -10z"/>
<path d="M2900 930 c0 -14 28 -19 33 -6 3 6 -4 13 -14 13 -10 1 -19 -2 -19 -7z"/>
<path d="M278 903 c7 -3 16 -2 19 1 4 3 -2 6 -13 5 -11 0 -14 -3 -6 -6z"/>
<path d="M203 887 c-18 -6 -33 -14 -33 -19 0 -9 58 11 66 23 3 5 4 8 2 8 -2
-1 -18 -7 -35 -12z"/>
<path d="M2950 875 c0 -16 16 -20 24 -6 3 5 -1 11 -9 15 -9 3 -15 0 -15 -9z"/>
<path d="M25 840 c-3 -5 1 -10 10 -10 9 0 13 5 10 10 -3 6 -8 10 -10 10 -2 0
-7 -4 -10 -10z"/>
<path d="M2900 840 c0 -6 -3 -9 -7 -7 -5 1 -8 -2 -8 -8 0 -13 37 -8 52 8 10
10 8 13 -12 15 -14 1 -25 -3 -25 -8z"/>
<path d="M125 810 c-33 -16 -54 -29 -47 -29 20 -1 112 40 112 50 0 5 -1 9 -2
8 -2 0 -30 -13 -63 -29z"/>
<path d="M258 829 c-30 -17 -20 -28 12 -13 17 9 30 17 30 20 0 7 -25 4 -42 -7z"/>
<path d="M2975 808 c-4 -9 -13 -14 -20 -12 -16 6 -31 -14 -19 -26 12 -11 57
26 51 42 -3 9 -7 8 -12 -4z"/>
<path d="M3020 780 c0 -11 -6 -20 -12 -21 -7 0 -4 -4 7 -8 28 -11 44 -3 38 19
-7 27 -33 34 -33 10z"/>
<path d="M2820 758 c0 -40 15 -59 23 -29 2 10 -2 29 -9 42 -13 23 -13 23 -14
-13z"/>
<path d="M420 755 c6 -8 9 -19 5 -25 -3 -5 -1 -10 4 -10 6 0 11 4 11 9 0 18
-12 41 -22 41 -6 0 -5 -6 2 -15z"/>
<path d="M377 745 c-4 -8 -2 -17 3 -20 6 -4 10 3 10 14 0 25 -6 27 -13 6z"/>
<path d="M537 733 c-10 -9 -9 -23 1 -23 5 0 9 7 9 15 0 17 -1 18 -10 8z"/>
<path d="M207 724 c-4 -4 -7 -18 -7 -31 0 -25 24 -32 33 -9 7 17 -15 50 -26
40z"/>
<path d="M3015 720 c3 -5 8 -10 11 -10 2 0 4 5 4 10 0 6 -5 10 -11 10 -5 0 -7
-4 -4 -10z"/>
<path d="M3150 710 c0 -5 5 -10 10 -10 6 0 10 5 10 10 0 6 -4 10 -10 10 -5 0
-10 -4 -10 -10z"/>
<path d="M110 685 c0 -17 9 -19 28 -6 11 7 10 10 -3 15 -23 9 -25 8 -25 -9z"/>
<path d="M165 690 c3 -5 8 -10 11 -10 2 0 4 5 4 10 0 6 -5 10 -11 10 -5 0 -7
-4 -4 -10z"/>
<path d="M2850 689 c0 -5 5 -7 10 -4 6 3 10 8 10 11 0 2 -4 4 -10 4 -5 0 -10
-5 -10 -11z"/>
<path d="M2890 689 c0 -5 5 -7 10 -4 6 3 10 8 10 11 0 2 -4 4 -10 4 -5 0 -10
-5 -10 -11z"/>
<path d="M80 676 c0 -9 5 -16 10 -16 6 0 10 4 10 9 0 6 -4 13 -10 16 -5 3 -10
-1 -10 -9z"/>
<path d="M2920 670 c0 -5 5 -10 11 -10 5 0 7 5 4 10 -3 6 -8 10 -11 10 -2 0
-4 -4 -4 -10z"/>
<path d="M370 629 c0 -5 5 -7 10 -4 6 3 10 8 10 11 0 2 -4 4 -10 4 -5 0 -10
-5 -10 -11z"/>
<path d="M465 630 c-3 -6 1 -7 9 -4 18 7 21 14 7 14 -6 0 -13 -4 -16 -10z"/>
<path d="M2660 630 c0 -5 7 -10 16 -10 8 0 12 5 9 10 -3 6 -10 10 -16 10 -5 0
-9 -4 -9 -10z"/>
<path d="M2700 630 c0 -5 5 -10 10 -10 6 0 10 5 10 10 0 6 -4 10 -10 10 -5 0
-10 -4 -10 -10z"/>
<path d="M2837 634 c-4 -4 -7 -14 -7 -23 0 -11 3 -12 11 -4 6 6 10 16 7 23 -2
6 -7 8 -11 4z"/>
<path d="M427 614 c-10 -11 -8 -64 2 -64 13 0 24 51 13 62 -4 4 -11 5 -15 2z"/>
<path d="M3140 606 c0 -2 7 -7 16 -10 8 -3 12 -2 9 4 -6 10 -25 14 -25 6z"/>
<path d="M2680 574 c0 -8 5 -12 10 -9 6 4 8 11 5 16 -9 14 -15 11 -15 -7z"/>
<path d="M2895 580 c-4 -6 -3 -16 3 -22 6 -6 12 -6 17 2 4 6 3 16 -3 22 -6 6
-12 6 -17 -2z"/>
<path d="M265 550 c-3 -5 1 -10 10 -10 9 0 13 5 10 10 -3 6 -8 10 -10 10 -2 0
-7 -4 -10 -10z"/>
<path d="M2760 542 c0 -14 11 -21 26 -15 8 3 11 9 8 14 -7 11 -34 12 -34 1z"/>
<path d="M2468 513 c7 -3 16 -2 19 1 4 3 -2 6 -13 5 -11 0 -14 -3 -6 -6z"/>
<path d="M580 500 c-9 -6 -10 -10 -3 -10 6 0 15 5 18 10 8 12 4 12 -15 0z"/>
<path d="M2597 504 c-14 -15 -6 -34 14 -34 14 0 19 5 17 17 -3 18 -20 27 -31
17z"/>
<path d="M178 493 c7 -3 16 -2 19 1 4 3 -2 6 -13 5 -11 0 -14 -3 -6 -6z"/>
<path d="M2661 477 c-15 -39 -14 -45 5 -19 8 12 13 28 11 35 -3 6 -10 -1 -16
-16z"/>
<path d="M2707 479 c-4 -13 -2 -28 3 -33 14 -14 24 19 12 40 -8 14 -10 13 -15
-7z"/>
<path d="M785 465 c-16 -7 -23 -14 -14 -14 8 -1 24 6 35 14 24 18 18 18 -21 0z"/>
<path d="M675 460 c3 -5 8 -10 11 -10 2 0 4 5 4 10 0 6 -5 10 -11 10 -5 0 -7
-4 -4 -10z"/>
<path d="M723 445 c0 -18 19 -15 25 3 2 7 -3 12 -10 12 -8 0 -15 -7 -15 -15z"/>
<path d="M90 400 c-18 -23 -30 -43 -28 -46 5 -4 43 41 62 74 15 26 -4 10 -34
-28z"/>
<path d="M420 430 c0 -5 5 -10 10 -10 6 0 10 5 10 10 0 6 -4 10 -10 10 -5 0
-10 -4 -10 -10z"/>
<path d="M2420 431 c0 -6 4 -13 10 -16 6 -3 7 1 4 9 -7 18 -14 21 -14 7z"/>
<path d="M785 420 c-3 -5 1 -10 10 -10 9 0 13 5 10 10 -3 6 -8 10 -10 10 -2 0
-7 -4 -10 -10z"/>
<path d="M2330 423 c8 -3 23 -12 33 -21 21 -19 23 -9 1 12 -8 9 -23 16 -32 15
-14 0 -14 -2 -2 -6z"/>
<path d="M2546 413 c-9 -22 23 -28 38 -7 12 15 16 16 30 5 11 -9 16 -10 16 -2
0 12 0 12 -47 16 -20 2 -34 -3 -37 -12z"/>
<path d="M860 404 c0 -8 5 -12 10 -9 6 4 8 11 5 16 -9 14 -15 11 -15 -7z"/>
<path d="M750 410 c-8 -26 -7 -41 2 -32 6 6 8 16 5 24 -3 7 -6 11 -7 8z"/>
<path d="M826 401 c-4 -7 -5 -15 -2 -18 9 -9 19 4 14 18 -4 11 -6 11 -12 0z"/>
<path d="M2395 400 c-3 -6 1 -13 10 -16 19 -8 30 0 20 15 -8 14 -22 14 -30 1z"/>
<path d="M611 384 c0 -11 3 -14 6 -6 3 7 2 16 -1 19 -3 4 -6 -2 -5 -13z"/>
<path d="M2432 368 c-7 -7 -12 -16 -12 -21 0 -5 7 -1 16 8 9 9 14 18 12 20 -2
3 -10 -1 -16 -7z"/>
<path d="M575 353 c-14 -13 -14 -18 -2 -37 18 -27 50 -32 67 -11 28 33 -34 79
-65 48z"/>
<path d="M2370 360 c0 -5 5 -10 10 -10 6 0 10 5 10 10 0 6 -4 10 -10 10 -5 0
-10 -4 -10 -10z"/>
<path d="M900 345 c-1 -5 -2 -13 -1 -17 0 -5 -6 -8 -14 -8 -9 0 -12 -6 -8 -16
5 -13 9 -12 29 7 13 12 24 27 24 33 0 6 -4 5 -9 -3 -7 -11 -9 -11 -14 0 -3 8
-6 10 -7 4z"/>
<path d="M2144 318 c3 -12 0 -18 -9 -18 -8 0 -15 -7 -15 -15 0 -8 6 -12 14 -9
20 8 26 28 14 45 -8 11 -9 10 -4 -3z"/>
<path d="M2480 319 c0 -5 5 -7 10 -4 6 3 10 8 10 11 0 2 -4 4 -10 4 -5 0 -10
-5 -10 -11z"/>
<path d="M1060 312 c0 -12 19 -26 26 -19 2 2 -2 10 -11 17 -9 8 -15 8 -15 2z"/>
<path d="M1313 283 c4 -6 3 -14 -3 -18 -6 -4 -8 -11 -4 -16 3 -5 1 -16 -6 -24
-10 -12 -7 -12 14 -2 30 14 34 38 9 58 -10 8 -14 9 -10 2z"/>
<path d="M2245 280 c-8 -13 3 -30 18 -30 7 0 6 4 -3 10 -13 9 -13 11 0 20 9 6
10 10 3 10 -6 0 -15 -4 -18 -10z"/>
<path d="M1015 271 c-6 -11 9 -23 19 -14 9 9 7 23 -3 23 -6 0 -12 -4 -16 -9z"/>
<path d="M2560 270 c0 -5 5 -10 11 -10 5 0 7 5 4 10 -3 6 -8 10 -11 10 -2 0
-4 -4 -4 -10z"/>
<path d="M836 261 c-3 -5 1 -14 9 -21 13 -10 15 -9 15 9 0 21 -14 28 -24 12z"/>
<path d="M2455 261 c-3 -5 -1 -12 5 -16 5 -3 10 1 10 9 0 18 -6 21 -15 7z"/>
<path d="M934 249 c-3 -6 -1 -16 5 -22 8 -8 11 -5 11 11 0 24 -5 28 -16 11z"/>
<path d="M2818 254 c-3 -5 7 -19 22 -31 23 -19 29 -20 34 -8 3 8 1 16 -4 16
-6 1 -15 2 -20 3 -6 0 -15 7 -19 15 -5 7 -11 9 -13 5z"/>
<path d="M1170 233 c0 -25 15 -38 25 -22 4 6 0 18 -9 27 -15 15 -16 15 -16 -5z"/>
<path d="M1634 235 c-4 -9 -4 -18 -2 -21 9 -8 39 8 35 19 -6 18 -27 20 -33 2z"/>
<path d="M2170 234 c0 -13 18 -39 24 -34 2 3 -2 14 -10 24 -8 11 -14 16 -14
10z"/>
<path d="M1912 216 c-25 -12 -24 -28 2 -32 10 -1 15 0 12 3 -3 4 -1 12 6 20
15 18 8 21 -20 9z"/>
<path d="M2024 222 c-16 -2 -21 -10 -20 -28 0 -13 2 -24 3 -24 1 0 14 11 28
24 27 26 24 34 -11 28z"/>
<path d="M1955 211 c-3 -5 -1 -12 5 -16 5 -3 10 1 10 9 0 18 -6 21 -15 7z"/>
<path d="M2264 197 c-11 -12 -12 -17 -4 -11 8 6 22 13 30 16 9 3 10 7 3 11 -6
4 -19 -3 -29 -16z"/>
<path d="M2566 191 c-4 -7 -5 -15 -2 -18 9 -9 19 4 14 18 -4 11 -6 11 -12 0z"/>
<path d="M1441 168 c-14 -23 -14 -23 8 -4 22 20 25 26 13 26 -4 0 -13 -10 -21
-22z"/>
<path d="M1710 180 c-9 -6 -10 -10 -3 -10 6 0 15 5 18 10 8 12 4 12 -15 0z"/>
<path d="M2490 181 c0 -5 5 -13 10 -16 6 -3 10 -2 10 4 0 5 -4 13 -10 16 -5 3
-10 2 -10 -4z"/>
<path d="M1755 170 c-3 -5 1 -10 9 -10 9 0 16 5 16 10 0 6 -4 10 -9 10 -6 0
-13 -4 -16 -10z"/>
<path d="M1957 163 c22 -17 33 -16 33 1 0 9 -10 13 -25 12 -23 -1 -24 -2 -8
-13z"/>
<path d="M2055 155 c52 -19 80 -19 36 0 -18 8 -43 15 -55 15 -13 -1 -7 -6 19
-15z"/>
<path d="M1650 137 c0 -14 19 -37 31 -37 4 0 2 11 -4 25 -13 27 -27 33 -27 12z"/>
<path d="M2147 135 c3 -8 9 -12 14 -9 12 7 11 11 -5 17 -10 4 -13 1 -9 -8z"/>
<path d="M1836 131 c-4 -5 -2 -12 3 -15 5 -4 12 -2 15 3 4 5 2 12 -3 15 -5 4
-12 2 -15 -3z"/>
<path d="M1870 130 c0 -5 5 -10 11 -10 5 0 7 5 4 10 -3 6 -8 10 -11 10 -2 0
-4 -4 -4 -10z"/>
<path d="M1590 90 c-11 -22 -16 -40 -11 -40 5 0 12 6 15 13 3 6 3 0 0 -16 -4
-16 -2 -27 5 -27 6 0 11 9 11 20 0 11 5 20 10 20 6 0 10 7 10 15 0 8 -5 15
-11 15 -6 0 -8 9 -4 20 11 34 -3 22 -25 -20z"/>
<path d="M2042 118 c-15 -15 -16 -38 -2 -38 12 0 23 25 18 40 -2 7 -7 7 -16
-2z"/>
<path d="M1435 100 c-3 -5 -1 -10 4 -10 6 0 11 5 11 10 0 6 -2 10 -4 10 -3 0
-8 -4 -11 -10z"/>
<path d="M1920 99 c0 -5 5 -7 10 -4 6 3 10 8 10 11 0 2 -4 4 -10 4 -5 0 -10
-5 -10 -11z"/>
<path d="M1410 70 c22 -31 40 -46 40 -33 -1 10 -47 63 -55 63 -4 0 3 -13 15
-30z"/>
<path d="M1506 85 c-3 -8 -1 -15 4 -15 6 0 10 7 10 15 0 8 -2 15 -4 15 -2 0
-6 -7 -10 -15z"/>
<path d="M1686 77 c3 -10 9 -15 12 -12 3 3 0 11 -7 18 -10 9 -11 8 -5 -6z"/>
<path d="M1850 60 c0 -5 5 -10 10 -10 6 0 10 5 10 10 0 6 -4 10 -10 10 -5 0
-10 -4 -10 -10z"/>
<path d="M1500 40 c0 -5 5 -10 10 -10 6 0 10 5 10 10 0 6 -4 10 -10 10 -5 0
-10 -4 -10 -10z"/>
<path d="M2250 45 c0 -5 5 -17 10 -25 5 -8 10 -10 10 -5 0 6 -5 17 -10 25 -5
8 -10 11 -10 5z"/>
<path d="M1990 36 c0 -2 8 -10 18 -17 15 -13 16 -12 3 4 -13 16 -21 21 -21 13z"/>
<path d="M1866 17 c3 -10 9 -15 12 -12 3 3 0 11 -7 18 -10 9 -11 8 -5 -6z"/>
<path d="M2315 10 c3 -5 11 -10 16 -10 6 0 7 5 4 10 -3 6 -11 10 -16 10 -6 0
-7 -4 -4 -10z"/>
</g>
</svg>
